<?xml version="1.0" encoding="UTF-8"?>
<svg xmlns="http://www.w3.org/2000/svg" xmlns:xlink="http://www.w3.org/1999/xlink" width="512px" height="512px" viewBox="0 0 512 512" version="1.1">
<g id="surface1">
<path style=" stroke:none;fill-rule:nonzero;fill:rgb(20.784314%,17.254902%,38.82353%);fill-opacity:1;" d="M 255.105469 -0.769531 C 256.746094 -0.765625 258.386719 -0.765625 260.078125 -0.765625 C 284.238281 -0.6875 306.652344 0.445312 329.726562 8.191406 C 331.09375 8.632812 332.460938 9.070312 333.871094 9.523438 C 375.625 23.074219 419.75 47.566406 447.359375 82.433594 C 448.914062 84.386719 450.46875 86.34375 452.070312 88.359375 C 453.601562 90.289062 455.128906 92.21875 456.703125 94.207031 C 458.128906 95.90625 459.550781 97.601562 461.015625 99.351562 C 506.425781 153.894531 515.152344 220.066406 512 288.769531 C 506.570312 346.4375 477.65625 396.976562 438.273438 438.273438 C 437.222656 439.378906 436.175781 440.488281 435.097656 441.632812 C 426.578125 450.433594 417.605469 457.785156 407.550781 464.769531 C 406.035156 465.824219 404.515625 466.878906 402.953125 467.96875 C 344.332031 508.074219 273.53125 521.929688 203.355469 508.878906 C 160.195312 499.757812 123.625 480.683594 89.347656 453.226562 C 86.632812 451.054688 83.882812 448.929688 81.121094 446.816406 C 68.613281 436.75 59.226562 423.734375 49.65625 410.960938 C 47.480469 408.054688 45.273438 405.171875 43.054688 402.296875 C 28.027344 382.015625 17.519531 359.0625 9.472656 335.230469 C 8.984375 333.789062 8.496094 332.347656 7.992188 330.863281 C 0.65625 308 -0.765625 285.824219 -0.757812 261.988281 C -0.769531 256.953125 -0.84375 251.925781 -0.921875 246.890625 C -1.152344 214.113281 5.023438 183.617188 18.433594 153.601562 C 18.980469 152.351562 19.527344 151.101562 20.09375 149.8125 C 30.285156 126.90625 43.558594 107.4375 59.390625 88.0625 C 60.734375 86.386719 60.734375 86.386719 62.101562 84.671875 C 95.082031 43.839844 146.160156 16.410156 196.609375 4.097656 C 198.222656 3.699219 199.839844 3.304688 201.503906 2.898438 C 219.230469 -0.875 237.070312 -0.8125 255.105469 -0.769531 Z M 255.105469 -0.769531 "/>
<path style=" stroke:none;fill-rule:nonzero;fill:rgb(99.215686%,98.039216%,98.039216%);fill-opacity:1;" d="M 350.867188 130.4375 C 383.027344 155.546875 405.023438 190.949219 411.648438 231.425781 C 415.675781 277.03125 406.683594 319.503906 378.367188 356.097656 C 355.703125 381.894531 326.664062 401.929688 292.863281 409.601562 C 291.402344 410.015625 289.9375 410.429688 288.433594 410.855469 C 251.351562 420.222656 212.222656 413.121094 178.960938 395.351562 C 141.117188 372.5 112.710938 339.09375 101.007812 295.921875 C 92.804688 256.46875 96.105469 212.421875 117.191406 177.441406 C 138.863281 145.242188 162.9375 123.976562 198.65625 108.542969 C 200.703125 107.609375 202.753906 106.675781 204.863281 105.710938 C 251.359375 87.839844 311.882812 101.683594 350.867188 130.4375 Z M 350.867188 130.4375 "/>
<path style=" stroke:none;fill-rule:nonzero;fill:rgb(94.901961%,94.901961%,94.901961%);fill-opacity:1;" d="M 167.9375 55.296875 C 167.472656 56.390625 167.007812 57.488281 166.527344 58.617188 C 165.585938 65.777344 168.570312 69.671875 172.03125 75.902344 C 175.617188 82.375 175.617188 82.375 178.175781 88.0625 C 177.164062 91.105469 177.164062 91.105469 176.128906 94.207031 C 173.085938 93.195312 173.085938 93.195312 169.984375 92.160156 C 169.984375 90.808594 169.984375 89.457031 169.984375 88.0625 C 168.589844 89.078125 167.195312 90.089844 165.761719 91.136719 C 158.402344 94.894531 153.574219 94.964844 145.40625 94.207031 C 143.378906 92.855469 141.351562 91.503906 139.265625 90.113281 C 140.277344 87.070312 140.277344 87.070312 141.3125 83.96875 C 142.664062 83.96875 144.015625 83.96875 145.40625 83.96875 C 144.054688 81.265625 142.703125 78.5625 141.3125 75.777344 C 133.261719 76.953125 133.261719 76.953125 126.976562 81.921875 C 127.75 91.28125 134.519531 97.304688 140.296875 104.199219 C 143.359375 108.542969 143.359375 108.542969 143.359375 114.6875 C 134.570312 113.742188 131.011719 108.746094 125.441406 102.273438 C 123.804688 100.390625 122.167969 98.507812 120.480469 96.566406 C 119.246094 95.113281 118.007812 93.660156 116.734375 92.160156 C 112.679688 94.1875 112.679688 94.1875 108.542969 96.257812 C 108.125 102.144531 108.125 102.144531 110.207031 106.113281 C 110.59375 110.59375 110.59375 110.59375 105.601562 116.863281 C 103.867188 118.847656 102.136719 120.835938 100.351562 122.878906 C 100.351562 124.90625 100.351562 126.933594 100.351562 129.023438 C 107.347656 129.367188 107.347656 129.367188 114.6875 129.023438 C 119.519531 124.191406 119.789062 121.285156 120.832031 114.6875 C 122.859375 114.6875 124.886719 114.6875 126.976562 114.6875 C 126.976562 118.066406 126.976562 121.445312 126.976562 124.929688 C 131.707031 124.929688 136.4375 124.929688 141.3125 124.929688 C 141.3125 126.28125 141.3125 127.632812 141.3125 129.023438 C 136.582031 129.023438 131.851562 129.023438 126.976562 129.023438 C 126.976562 134.429688 126.976562 139.835938 126.976562 145.40625 C 125.625 145.40625 124.273438 145.40625 122.878906 145.40625 C 121.867188 139.324219 121.867188 139.324219 120.832031 133.121094 C 118.804688 134.472656 116.777344 135.824219 114.6875 137.214844 C 111.265625 137.53125 111.265625 137.53125 107.777344 137.855469 C 100.003906 138.582031 100.003906 138.582031 95.230469 144.640625 C 90.113281 149.503906 90.113281 149.503906 82.6875 149.375 C 75.777344 147.457031 75.777344 147.457031 69.632812 143.359375 C 68.617188 148.429688 68.617188 148.429688 67.585938 153.601562 C 76.371094 158.332031 85.15625 163.0625 94.207031 167.9375 C 93.53125 169.964844 92.855469 171.992188 92.160156 174.078125 C 83.492188 172.808594 76.753906 169.769531 68.992188 165.761719 C 66.804688 164.636719 64.613281 163.515625 62.359375 162.359375 C 60.703125 161.496094 59.050781 160.632812 57.34375 159.742188 C 57.34375 162.449219 57.34375 165.152344 57.34375 167.9375 C 58.992188 168.90625 60.640625 169.878906 62.335938 170.878906 C 67.585938 174.078125 67.585938 174.078125 69.246094 179.585938 C 69.375 181.148438 69.5 182.710938 69.632812 184.320312 C 71.976562 183.304688 71.976562 183.304688 74.367188 182.273438 C 79.871094 180.222656 79.871094 180.222656 86.015625 180.222656 C 85.816406 184.03125 85.816406 184.03125 83.96875 188.414062 C 78.089844 191.007812 78.089844 191.007812 70.785156 193.023438 C 67.175781 194.054688 67.175781 194.054688 63.496094 195.105469 C 57.34375 196.609375 57.34375 196.609375 53.246094 196.609375 C 54.015625 192.640625 54.015625 192.640625 55.296875 188.414062 C 57.324219 187.402344 57.324219 187.402344 59.390625 186.367188 C 59.390625 184.339844 59.390625 182.3125 59.390625 180.222656 C 56.6875 179.546875 53.984375 178.871094 51.199219 178.175781 C 48.160156 188.3125 48.160156 188.3125 45.054688 198.65625 C 43.027344 198.65625 41 198.65625 38.910156 198.65625 C 41.476562 185.234375 45.28125 173.703125 51.199219 161.40625 C 52 159.734375 52.796875 158.058594 53.621094 156.332031 C 62.414062 138.476562 73.355469 120.160156 88.0625 106.496094 C 84.683594 105.144531 81.304688 103.792969 77.824219 102.398438 C 77.113281 96.421875 76.734375 91.890625 79.960938 86.632812 C 83.652344 82.160156 86.925781 78.394531 92.160156 75.777344 C 96.375 75.953125 96.375 75.953125 101.246094 76.542969 C 102.851562 76.730469 104.453125 76.914062 106.105469 77.105469 C 110.59375 77.824219 110.59375 77.824219 116.734375 79.871094 C 121.1875 77.34375 121.1875 77.34375 125.824219 73.601562 C 156.214844 51.386719 156.214844 51.386719 167.9375 55.296875 Z M 167.9375 55.296875 "/>
<path style=" stroke:none;fill-rule:nonzero;fill:rgb(88.235295%,14.901961%,17.647059%);fill-opacity:1;" d="M 245.761719 296.960938 C 249.855469 300.414062 249.855469 300.414062 251.902344 305.152344 C 251.632812 311.789062 250.992188 315.890625 247.039062 321.28125 C 243.710938 323.585938 243.710938 323.585938 237.566406 323.585938 C 238.285156 325.214844 239 326.847656 239.734375 328.527344 C 241.132812 331.78125 241.132812 331.78125 242.558594 335.105469 C 243.949219 338.3125 243.949219 338.3125 245.367188 341.585938 C 251.792969 358.90625 251.796875 379.355469 247.808594 397.3125 C 218.832031 394.898438 194.15625 386.757812 169.984375 370.6875 C 175.574219 350.808594 197.816406 332.917969 214.382812 322.023438 C 219.136719 319.488281 219.136719 319.488281 223.230469 319.488281 C 223.136719 318.230469 223.042969 316.96875 222.945312 315.671875 C 222.34375 302.261719 222.34375 302.261719 226.433594 296.703125 C 233.65625 294.109375 238.414062 294.957031 245.761719 296.960938 Z M 245.761719 296.960938 "/>
<path style=" stroke:none;fill-rule:nonzero;fill:rgb(88.235295%,14.901961%,17.647059%);fill-opacity:1;" d="M 366.59375 167.9375 C 395.3125 216.847656 395.3125 216.847656 393.214844 243.710938 C 386 247.320312 377.742188 246.242188 369.792969 246.273438 C 367.9375 246.28125 366.085938 246.289062 364.175781 246.296875 C 352.042969 246.191406 341.40625 244.957031 329.921875 240.761719 C 324.910156 239.421875 322.246094 239.820312 317.441406 241.664062 C 316.554688 242.761719 315.664062 243.859375 314.753906 244.992188 C 311.296875 247.808594 311.296875 247.808594 304.128906 247.679688 C 296.960938 245.761719 296.960938 245.761719 292.863281 242.433594 C 289.855469 235.28125 290.847656 230.621094 292.863281 223.230469 C 296.320312 219.136719 296.320312 219.136719 301.054688 217.089844 C 307.234375 217.582031 311.894531 218.410156 317.441406 221.183594 C 317.96875 219.382812 318.496094 217.582031 319.039062 215.726562 C 325.136719 199.039062 346.425781 167.9375 366.59375 167.9375 Z M 366.59375 167.9375 "/>
<path style=" stroke:none;fill-rule:nonzero;fill:rgb(88.235295%,14.509805%,17.254902%);fill-opacity:1;" d="M 262.144531 114.6875 C 288.046875 115.28125 315.144531 123.292969 335.871094 139.265625 C 337.222656 141.292969 338.574219 143.320312 339.96875 145.40625 C 325.6875 165.550781 310.257812 179.957031 288.769531 192.511719 C 287.417969 192.511719 286.066406 192.511719 284.671875 192.511719 C 285.179688 194.707031 285.6875 196.90625 286.207031 199.167969 C 286.71875 206.847656 286.71875 206.847656 283.648438 211.839844 C 276.71875 216.171875 272.21875 216.0625 264.191406 215.039062 C 260.222656 212.992188 260.222656 212.992188 258.046875 208.894531 C 257.105469 203.25 256.957031 198.140625 258.046875 192.511719 C 261.886719 188.414062 261.886719 188.414062 266.238281 186.367188 C 267.589844 186.367188 268.945312 186.367188 270.335938 186.367188 C 269.484375 184.105469 269.484375 184.105469 268.617188 181.800781 C 267.503906 178.800781 267.503906 178.800781 266.367188 175.742188 C 265.632812 173.773438 264.894531 171.800781 264.136719 169.769531 C 260.648438 159.386719 259.816406 150.21875 259.839844 139.265625 C 259.835938 136.8125 259.828125 134.363281 259.824219 131.839844 C 260.058594 125.84375 260.753906 120.507812 262.144531 114.6875 Z M 262.144531 114.6875 "/>
<path style=" stroke:none;fill-rule:nonzero;fill:rgb(88.235295%,14.509805%,17.254902%);fill-opacity:1;" d="M 202.753906 265.214844 C 208.894531 266.238281 208.894531 266.238281 213.761719 269.566406 C 218.085938 275.890625 218.339844 279.199219 217.089844 286.71875 C 214.015625 291.585938 214.015625 291.585938 208.894531 294.910156 C 203.246094 295.582031 198.238281 295.292969 192.511719 294.910156 C 191.839844 296.449219 191.164062 297.984375 190.472656 299.566406 C 180.800781 320.375 168.707031 338.214844 147.457031 348.160156 C 130.757812 328.597656 112.617188 301.347656 114.6875 274.433594 C 120.5625 271.101562 124.804688 269.8125 131.542969 269.792969 C 133.191406 269.785156 134.835938 269.78125 136.53125 269.777344 C 139.089844 269.800781 139.089844 269.800781 141.695312 269.824219 C 144.191406 269.800781 144.191406 269.800781 146.738281 269.777344 C 156.96875 269.808594 166.199219 270.960938 176.097656 273.554688 C 180.855469 274.714844 180.855469 274.714844 188.414062 274.433594 C 189.683594 273.082031 190.949219 271.730469 192.257812 270.335938 C 196.609375 266.238281 196.609375 266.238281 202.753906 265.214844 Z M 202.753906 265.214844 "/>
<path style=" stroke:none;fill-rule:nonzero;fill:rgb(88.235295%,14.509805%,17.254902%);fill-opacity:1;" d="M 307.070312 258.816406 C 316.140625 260.667969 318.316406 264.949219 323.585938 272.382812 C 324.710938 271.792969 325.839844 271.203125 327 270.59375 C 346.429688 261.917969 368.179688 262.320312 389.121094 264.191406 C 390.472656 264.867188 391.824219 265.542969 393.214844 266.238281 C 394.980469 292.726562 382.851562 321.574219 366.59375 342.015625 C 349.625 337.246094 336.003906 320.761719 325.632812 307.199219 C 323.980469 304.230469 322.359375 301.242188 320.769531 298.238281 C 317.785156 293.125 316.414062 291.199219 310.808594 289.097656 C 305.855469 288.0625 305.855469 288.0625 301.03125 287.640625 C 296.960938 286.71875 296.960938 286.71875 292.863281 280.574219 C 291.917969 273.171875 291.933594 269.648438 296.191406 263.425781 C 301.054688 260.097656 301.054688 260.097656 307.070312 258.816406 Z M 307.070312 258.816406 "/>
<path style=" stroke:none;fill-rule:nonzero;fill:rgb(88.235295%,14.117648%,16.862746%);fill-opacity:1;" d="M 288.769531 294.910156 C 292.863281 298.367188 292.863281 298.367188 294.910156 303.105469 C 294.417969 309.285156 293.589844 313.945312 290.816406 319.488281 C 292.316406 319.730469 293.820312 319.972656 295.367188 320.222656 C 316.871094 325.183594 334.613281 342.28125 346.113281 360.449219 C 346.113281 362.476562 346.113281 364.503906 346.113281 366.59375 C 296.007812 395.683594 296.007812 395.683594 278.144531 395.390625 C 275.566406 395.351562 272.992188 395.308594 270.335938 395.265625 C 264.789062 372.410156 265.878906 342.738281 276.480469 321.535156 C 275.171875 320.902344 273.859375 320.269531 272.511719 319.617188 C 268.289062 317.441406 268.289062 317.441406 266.238281 315.390625 C 265.046875 300.585938 265.046875 300.585938 269.441406 294.785156 C 276.667969 292.003906 281.371094 292.894531 288.769531 294.910156 Z M 288.769531 294.910156 "/>
<path style=" stroke:none;fill-rule:nonzero;fill:rgb(88.235295%,14.901961%,17.647059%);fill-opacity:1;" d="M 139.265625 174.078125 C 156.667969 176.089844 168.679688 192.515625 179.070312 205.441406 C 182.675781 210.113281 186.179688 214.757812 189.449219 219.671875 C 192.523438 224.035156 192.523438 224.035156 199.679688 224.257812 C 206.847656 225.28125 206.847656 225.28125 210.816406 228.863281 C 213.496094 234.542969 214.230469 237.515625 212.992188 243.710938 C 208.023438 248.964844 204.632812 251.539062 197.503906 252.929688 C 190.929688 251.578125 188.441406 248.902344 184.320312 243.710938 C 184.320312 242.359375 184.320312 241.007812 184.320312 239.617188 C 181.527344 240.726562 181.527344 240.726562 178.679688 241.855469 C 157.96875 249.65625 136.648438 254.457031 114.6875 247.808594 C 115.304688 220.824219 124.066406 196.273438 139.265625 174.078125 Z M 139.265625 174.078125 "/>
<path style=" stroke:none;fill-rule:nonzero;fill:rgb(88.235295%,14.901961%,17.647059%);fill-opacity:1;" d="M 233.472656 118.785156 C 237.578125 129.074219 238.28125 137.960938 238.207031 148.863281 C 238.207031 150.480469 238.203125 152.101562 238.199219 153.765625 C 237.988281 166.667969 235.917969 178.316406 231.425781 190.464844 C 232.734375 191.097656 234.042969 191.730469 235.390625 192.382812 C 239.617188 194.558594 239.617188 194.558594 241.664062 196.609375 C 242.25 203.1875 242.203125 207.691406 239.488281 213.761719 C 235.519531 217.089844 235.519531 217.089844 228.351562 217.984375 C 221.183594 217.089844 221.183594 217.089844 217.34375 214.785156 C 214.113281 209.398438 213.382812 204.890625 212.992188 198.65625 C 214.34375 196.628906 215.695312 194.601562 217.089844 192.511719 C 215.484375 192.425781 213.878906 192.34375 212.222656 192.257812 C 191.210938 187.183594 173.734375 171.203125 161.792969 153.601562 C 161.792969 152.25 161.792969 150.898438 161.792969 149.503906 C 166.039062 146.347656 170.25 143.484375 174.71875 140.671875 C 176.011719 139.851562 177.304688 139.027344 178.636719 138.179688 C 195.988281 127.355469 212.738281 118.394531 233.472656 118.785156 Z M 233.472656 118.785156 "/>
<path style=" stroke:none;fill-rule:nonzero;fill:rgb(93.725491%,93.725491%,94.117647%);fill-opacity:1;" d="M 385.023438 55.296875 C 387.726562 55.296875 390.429688 55.296875 393.214844 55.296875 C 393.515625 57.777344 393.515625 57.777344 393.824219 60.3125 C 395.859375 74.847656 397.546875 83.382812 409.03125 93.097656 C 438.496094 118.109375 467.875 159.257812 473.089844 198.65625 C 471.753906 198.757812 470.417969 198.855469 469.039062 198.960938 C 458.800781 199.835938 450.0625 201.402344 440.320312 204.800781 C 434.433594 205.054688 434.433594 205.054688 430.078125 204.800781 C 430.351562 200.992188 430.351562 200.992188 432.128906 196.609375 C 437.488281 194.015625 437.488281 194.015625 444.160156 192 C 447.445312 190.96875 447.445312 190.96875 450.800781 189.921875 C 456.703125 188.414062 456.703125 188.414062 462.847656 188.414062 C 461.835938 182.332031 461.835938 182.332031 460.800781 176.128906 C 449.3125 180.859375 437.820312 185.589844 425.984375 190.464844 C 425.308594 187.085938 424.632812 183.707031 423.9375 180.222656 C 430.019531 178.195312 436.101562 176.167969 442.367188 174.078125 C 438.683594 168.835938 438.683594 168.835938 434.175781 163.839844 C 432.148438 163.839844 430.121094 163.839844 428.03125 163.839844 C 428.707031 159.785156 429.382812 155.730469 430.078125 151.550781 C 432.109375 151.550781 434.136719 151.550781 436.222656 151.550781 C 439.0625 154.542969 439.0625 154.542969 441.726562 158.464844 C 442.621094 159.746094 443.519531 161.03125 444.441406 162.351562 C 446.464844 165.886719 446.464844 165.886719 446.464844 169.984375 C 448.492188 169.308594 450.519531 168.632812 452.609375 167.9375 C 451.421875 159.617188 448.734375 153.910156 444.289062 146.816406 C 443.164062 145.007812 442.042969 143.199219 440.886719 141.335938 C 440.023438 139.976562 439.160156 138.617188 438.273438 137.214844 C 430.882812 139.910156 424.859375 143.195312 418.433594 147.710938 C 410.050781 153.601562 410.050781 153.601562 405.503906 153.601562 C 404.828125 150.898438 404.152344 148.191406 403.457031 145.40625 C 404.492188 144.714844 405.527344 144.023438 406.59375 143.3125 C 407.921875 142.398438 409.253906 141.484375 410.625 140.542969 C 411.953125 139.640625 413.285156 138.738281 414.65625 137.808594 C 415.691406 136.9375 416.726562 136.066406 417.792969 135.167969 C 417.792969 133.816406 417.792969 132.464844 417.792969 131.070312 C 416.652344 131.707031 415.511719 132.339844 414.335938 132.992188 C 409.078125 135.40625 405.164062 136.925781 399.359375 137.214844 C 394.625 134.144531 394.625 134.144531 391.167969 129.023438 C 390.070312 119.152344 391.675781 111.59375 395.265625 102.398438 C 397.96875 102.398438 400.671875 102.398438 403.457031 102.398438 C 402.503906 104.996094 402.503906 104.996094 401.535156 107.648438 C 399.328125 114.789062 398.203125 121.613281 397.3125 129.023438 C 401.324219 128.792969 401.324219 128.792969 405.503906 126.976562 C 408.160156 121.875 408.160156 121.875 409.601562 116.734375 C 417.152344 119.253906 419.273438 122.753906 423.9375 129.023438 C 425.964844 128.347656 427.992188 127.671875 430.078125 126.976562 C 415.230469 104.851562 415.230469 104.851562 393.214844 92.160156 C 386.457031 100.269531 379.699219 108.378906 372.734375 116.734375 C 370.707031 116.058594 368.679688 115.382812 366.59375 114.6875 C 370.648438 105.875 376.347656 98.425781 382.03125 90.609375 C 385.398438 86.359375 385.398438 86.359375 385.023438 81.921875 C 382.320312 81.246094 379.617188 80.566406 376.832031 79.871094 C 370.75 88.65625 364.667969 97.445312 358.398438 106.496094 C 356.371094 105.820312 354.34375 105.144531 352.257812 104.449219 C 352.933594 101.746094 353.609375 99.042969 354.304688 96.257812 C 352.320312 94.90625 350.332031 93.550781 348.289062 92.160156 C 342.652344 87.558594 341.058594 84.402344 340.222656 77.183594 C 340.140625 74.691406 340.054688 72.199219 339.96875 69.632812 C 345.035156 71.660156 345.035156 71.660156 350.207031 73.726562 C 348.179688 74.402344 346.152344 75.078125 344.0625 75.777344 C 346.394531 81.082031 346.394531 81.082031 350.207031 86.015625 C 355.328125 87.722656 355.328125 87.722656 360.449219 86.015625 C 366.027344 79.28125 367.332031 74.171875 366.59375 65.535156 C 375.179688 66.910156 381.753906 71.382812 389.121094 75.777344 C 387.769531 69.019531 386.417969 62.257812 385.023438 55.296875 Z M 385.023438 55.296875 "/>
<path style=" stroke:none;fill-rule:nonzero;fill:rgb(94.117647%,94.117647%,94.117647%);fill-opacity:1;" d="M 217.089844 18.433594 C 224.96875 18.910156 228.386719 21.25 233.734375 26.648438 C 242.195312 34.078125 248.90625 34.375 259.839844 34.175781 C 278.875 34.460938 296.769531 37.167969 315.390625 40.960938 C 315.390625 42.988281 315.390625 45.015625 315.390625 47.105469 C 313.363281 47.105469 311.335938 47.105469 309.246094 47.105469 C 306.542969 57.917969 303.839844 68.730469 301.054688 79.871094 C 299.027344 79.871094 297 79.871094 294.910156 79.871094 C 295.902344 67.164062 297.640625 55.296875 301.054688 43.007812 C 297 42.332031 292.945312 41.65625 288.769531 40.960938 C 287.417969 53.125 286.066406 65.289062 284.671875 77.824219 C 281.96875 77.824219 279.265625 77.824219 276.480469 77.824219 C 277.15625 73.769531 277.832031 69.714844 278.527344 65.535156 C 276.5 66.550781 276.5 66.550781 274.433594 67.585938 C 263.671875 68.5 263.671875 68.5 258.304688 65.28125 C 254.964844 59.714844 255.324219 55.507812 256 49.152344 C 260.097656 45.054688 260.097656 45.054688 267.519531 44.800781 C 270.941406 44.925781 270.941406 44.925781 274.433594 45.054688 C 274.433594 46.40625 274.433594 47.757812 274.433594 49.152344 C 271.730469 49.828125 269.023438 50.503906 266.238281 51.199219 C 266.238281 54.578125 266.238281 57.957031 266.238281 61.441406 C 269.621094 60.765625 273 60.089844 276.480469 59.390625 C 277.832031 52.632812 279.183594 45.875 280.574219 38.910156 C 268.410156 38.910156 256.246094 38.910156 243.710938 38.910156 C 244.21875 42.902344 244.21875 42.902344 244.734375 46.976562 C 245.824219 56.636719 245.914062 66.0625 245.761719 75.777344 C 243.734375 75.777344 241.703125 75.777344 239.617188 75.777344 C 238.601562 65.636719 238.601562 65.636719 237.566406 55.296875 C 232.160156 57.324219 226.753906 59.351562 221.183594 61.441406 C 225.238281 67.523438 225.238281 67.523438 229.375 73.726562 C 219.554688 73.726562 217.753906 71.699219 210.433594 65.535156 C 208.605469 64.015625 206.777344 62.496094 204.894531 60.929688 C 203.511719 59.746094 202.128906 58.5625 200.703125 57.34375 C 202.730469 55.316406 204.757812 53.289062 206.847656 51.199219 C 209.550781 52.550781 212.253906 53.902344 215.039062 55.296875 C 215.714844 51.242188 216.390625 47.1875 217.089844 43.007812 C 208.976562 44.359375 200.867188 45.710938 192.511719 47.105469 C 191.835938 45.753906 191.160156 44.402344 190.464844 43.007812 C 203.5 38.679688 215.675781 35.921875 229.375 34.816406 C 229.375 33.464844 229.375 32.113281 229.375 30.71875 C 227.347656 29.367188 225.320312 28.015625 223.230469 26.625 C 221.203125 25.273438 219.175781 23.921875 217.089844 22.527344 C 217.089844 21.175781 217.089844 19.824219 217.089844 18.433594 Z M 217.089844 18.433594 "/>
<path style=" stroke:none;fill-rule:nonzero;fill:rgb(94.901961%,94.901961%,94.901961%);fill-opacity:1;" d="M 167.9375 55.296875 C 167.472656 56.390625 167.007812 57.488281 166.527344 58.617188 C 165.585938 65.777344 168.570312 69.671875 172.03125 75.902344 C 175.617188 82.375 175.617188 82.375 178.175781 88.0625 C 177.5 90.089844 176.824219 92.117188 176.128906 94.207031 C 174.101562 93.53125 172.074219 92.855469 169.984375 92.160156 C 169.984375 90.808594 169.984375 89.457031 169.984375 88.0625 C 168.589844 89.078125 167.195312 90.089844 165.761719 91.136719 C 158.402344 94.894531 153.574219 94.964844 145.40625 94.207031 C 143.378906 92.855469 141.351562 91.503906 139.265625 90.113281 C 139.941406 88.085938 140.617188 86.058594 141.3125 83.96875 C 142.664062 83.96875 144.015625 83.96875 145.40625 83.96875 C 141.585938 76.539062 141.585938 76.539062 135.167969 71.679688 C 137.214844 65.535156 137.214844 65.535156 142.574219 62.175781 C 144.777344 61.089844 146.980469 60 149.246094 58.878906 C 151.4375 57.769531 153.628906 56.664062 155.886719 55.519531 C 161.792969 53.246094 161.792969 53.246094 167.9375 55.296875 Z M 167.9375 55.296875 "/>
<path style=" stroke:none;fill-rule:nonzero;fill:rgb(94.901961%,94.901961%,94.901961%);fill-opacity:1;" d="M 63.488281 139.265625 C 64.164062 139.265625 64.839844 139.265625 65.535156 139.265625 C 65.597656 141.464844 65.65625 143.664062 65.71875 145.929688 C 66.828125 154.03125 66.828125 154.03125 73.609375 158.136719 C 76.054688 159.367188 78.527344 160.539062 81.023438 161.664062 C 82.285156 162.28125 83.546875 162.902344 84.84375 163.539062 C 87.941406 165.054688 91.074219 166.5 94.207031 167.9375 C 93.53125 169.964844 92.855469 171.992188 92.160156 174.078125 C 83.492188 172.808594 76.753906 169.769531 68.992188 165.761719 C 66.804688 164.636719 64.613281 163.515625 62.359375 162.359375 C 60.703125 161.496094 59.050781 160.632812 57.34375 159.742188 C 57.34375 162.449219 57.34375 165.152344 57.34375 167.9375 C 58.992188 168.90625 60.640625 169.878906 62.335938 170.878906 C 67.585938 174.078125 67.585938 174.078125 69.246094 179.585938 C 69.375 181.148438 69.5 182.710938 69.632812 184.320312 C 71.195312 183.644531 72.757812 182.96875 74.367188 182.273438 C 79.871094 180.222656 79.871094 180.222656 86.015625 180.222656 C 85.816406 184.03125 85.816406 184.03125 83.96875 188.414062 C 78.089844 191.007812 78.089844 191.007812 70.785156 193.023438 C 68.378906 193.710938 65.972656 194.398438 63.496094 195.105469 C 57.34375 196.609375 57.34375 196.609375 53.246094 196.609375 C 54.015625 192.640625 54.015625 192.640625 55.296875 188.414062 C 56.648438 187.738281 58 187.0625 59.390625 186.367188 C 59.390625 184.339844 59.390625 182.3125 59.390625 180.222656 C 56.6875 179.546875 53.984375 178.871094 51.199219 178.175781 C 49.171875 184.933594 47.144531 191.691406 45.054688 198.65625 C 43.027344 198.65625 41 198.65625 38.910156 198.65625 C 41.53125 184.464844 45.976562 172.652344 52.351562 159.742188 C 53.617188 157.109375 53.617188 157.109375 54.90625 154.425781 C 61.082031 141.667969 61.082031 141.667969 63.488281 139.265625 Z M 63.488281 139.265625 "/>
<path style=" stroke:none;fill-rule:nonzero;fill:rgb(94.117647%,94.117647%,94.117647%);fill-opacity:1;" d="M 96.257812 104.449219 C 98.960938 107.152344 101.664062 109.855469 104.449219 112.640625 C 103.773438 114.203125 103.097656 115.765625 102.398438 117.375 C 99.996094 122.859375 99.996094 122.859375 100.351562 129.023438 C 107.347656 129.367188 107.347656 129.367188 114.6875 129.023438 C 119.519531 124.191406 119.789062 121.285156 120.832031 114.6875 C 122.859375 114.6875 124.886719 114.6875 126.976562 114.6875 C 126.976562 118.066406 126.976562 121.445312 126.976562 124.929688 C 131.707031 124.929688 136.4375 124.929688 141.3125 124.929688 C 141.3125 126.28125 141.3125 127.632812 141.3125 129.023438 C 136.582031 129.023438 131.851562 129.023438 126.976562 129.023438 C 126.976562 134.429688 126.976562 139.835938 126.976562 145.40625 C 125.625 145.40625 124.273438 145.40625 122.878906 145.40625 C 122.203125 141.351562 121.527344 137.296875 120.832031 133.121094 C 118.804688 134.472656 116.777344 135.824219 114.6875 137.214844 C 112.40625 137.425781 110.125 137.636719 107.777344 137.855469 C 98.847656 139.550781 95.882812 142.6875 90.113281 149.503906 C 78.53125 140.882812 78.53125 140.882812 75.777344 134.59375 C 75.777344 126.277344 80.550781 121.929688 85.886719 116.097656 C 86.875 114.96875 87.859375 113.84375 88.875 112.683594 C 91.308594 109.914062 93.777344 107.179688 96.257812 104.449219 Z M 98.304688 112.640625 C 98.304688 114.667969 98.304688 116.695312 98.304688 118.785156 C 99.65625 116.757812 101.007812 114.730469 102.398438 112.640625 C 101.046875 112.640625 99.695312 112.640625 98.304688 112.640625 Z M 98.304688 112.640625 "/>
<path style=" stroke:none;fill-rule:nonzero;fill:rgb(93.725491%,93.333334%,93.333334%);fill-opacity:1;" d="M 92.160156 356.351562 C 97.488281 361.261719 100.171875 364.265625 100.734375 371.585938 C 97.003906 379.632812 91.414062 384.417969 83.96875 389.121094 C 76.414062 391.550781 76.414062 391.550781 69.632812 391.167969 C 64.078125 386.324219 61.75 383.191406 60.742188 375.855469 C 61.441406 370.6875 61.441406 370.6875 64.878906 367.070312 C 66.363281 366.070312 67.847656 365.066406 69.375 364.03125 C 71.585938 362.496094 71.585938 362.496094 73.839844 360.929688 C 80.375 356.78125 84.351562 355.238281 92.160156 356.351562 Z M 92.160156 356.351562 "/>
<path style=" stroke:none;fill-rule:nonzero;fill:rgb(96.078432%,96.078432%,96.078432%);fill-opacity:1;" d="M 444.414062 286.71875 C 468.011719 288.691406 468.011719 288.691406 479.230469 290.816406 C 479.230469 292.84375 479.230469 294.871094 479.230469 296.960938 C 470.445312 296.285156 461.660156 295.609375 452.609375 294.910156 C 460.71875 298.96875 468.828125 303.023438 477.183594 307.199219 C 477.183594 309.226562 477.183594 311.253906 477.183594 313.34375 C 466.03125 314.359375 466.03125 314.359375 454.65625 315.390625 C 460.738281 317.417969 466.820312 319.445312 473.089844 321.535156 C 473.089844 323.5625 473.089844 325.589844 473.089844 327.679688 C 460.789062 326.351562 449.738281 321.828125 438.273438 317.441406 C 438.273438 314.0625 438.273438 310.679688 438.273438 307.199219 C 449.421875 306.1875 449.421875 306.1875 460.800781 305.152344 C 455.394531 302.449219 449.988281 299.746094 444.414062 296.960938 C 444.414062 293.582031 444.414062 290.203125 444.414062 286.71875 Z M 444.414062 286.71875 "/>
<path style=" stroke:none;fill-rule:nonzero;fill:rgb(94.117647%,94.117647%,94.117647%);fill-opacity:1;" d="M 239.617188 446.464844 C 242.558594 446.296875 245.503906 446.179688 248.449219 446.078125 C 250.90625 445.972656 250.90625 445.972656 253.414062 445.863281 C 258.046875 446.464844 258.046875 446.464844 261.769531 449.167969 C 264.191406 452.609375 264.191406 452.609375 263.425781 458.878906 C 263 460.867188 262.578125 462.851562 262.144531 464.894531 C 262.820312 466.246094 263.496094 467.597656 264.191406 468.992188 C 264.273438 473.769531 264.28125 478.550781 264.191406 483.328125 C 261.488281 483.328125 258.785156 483.328125 256 483.328125 C 255.324219 478.597656 254.648438 473.867188 253.953125 468.992188 C 251.25 468.992188 248.546875 468.992188 245.761719 468.992188 C 245.085938 473.722656 244.410156 478.453125 243.710938 483.328125 C 241.683594 483.328125 239.65625 483.328125 237.566406 483.328125 C 237.511719 479.105469 237.472656 474.878906 237.441406 470.65625 C 237.417969 468.304688 237.390625 465.953125 237.367188 463.527344 C 237.542969 457.539062 238.226562 452.273438 239.617188 446.464844 Z M 239.617188 446.464844 "/>
<path style=" stroke:none;fill-rule:nonzero;fill:rgb(88.235295%,87.843138%,88.235295%);fill-opacity:1;" d="M 235.519531 38.910156 C 237.566406 40.960938 237.566406 40.960938 237.695312 47.230469 C 237.652344 49.21875 237.613281 51.203125 237.566406 53.246094 C 229.457031 57.304688 229.457031 57.304688 221.183594 61.441406 C 225.238281 67.523438 225.238281 67.523438 229.375 73.726562 C 219.554688 73.726562 217.753906 71.699219 210.433594 65.535156 C 208.605469 64.015625 206.777344 62.496094 204.894531 60.929688 C 202.820312 59.152344 202.820312 59.152344 200.703125 57.34375 C 202.730469 55.316406 204.757812 53.289062 206.847656 51.199219 C 209.550781 52.550781 212.253906 53.902344 215.039062 55.296875 C 215.714844 51.242188 216.390625 47.1875 217.089844 43.007812 C 208.976562 44.359375 200.867188 45.710938 192.511719 47.105469 C 191.835938 45.753906 191.160156 44.402344 190.464844 43.007812 C 205.921875 36.957031 219.144531 36 235.519531 38.910156 Z M 235.519531 38.910156 "/>
<path style=" stroke:none;fill-rule:nonzero;fill:rgb(94.509804%,94.509804%,94.509804%);fill-opacity:1;" d="M 106.496094 378.878906 C 108.523438 380.230469 110.550781 381.582031 112.640625 382.976562 C 109.957031 391.648438 106.613281 399.511719 102.398438 407.550781 C 107.808594 402.144531 113.214844 396.738281 118.785156 391.167969 C 120.136719 391.84375 121.488281 392.519531 122.878906 393.214844 C 119.648438 400.816406 114.878906 406.117188 109.3125 412.160156 C 107.636719 413.988281 105.964844 415.8125 104.238281 417.695312 C 102.957031 419.078125 101.675781 420.460938 100.351562 421.886719 C 98.324219 420.535156 96.296875 419.183594 94.207031 417.792969 C 95.433594 409.203125 97.433594 401.386719 100.351562 393.214844 C 96.296875 397.269531 92.242188 401.324219 88.0625 405.503906 C 86.035156 404.828125 84.007812 404.152344 81.921875 403.457031 C 85.035156 395.507812 89.828125 391.703125 96.511719 386.558594 C 98.375 385.113281 100.238281 383.667969 102.160156 382.175781 C 103.589844 381.089844 105.023438 380 106.496094 378.878906 Z M 106.496094 378.878906 "/>
<path style=" stroke:none;fill-rule:nonzero;fill:rgb(93.333334%,92.941177%,92.941177%);fill-opacity:1;" d="M 137.0625 405.960938 C 138.464844 406.484375 139.867188 407.011719 141.3125 407.550781 C 137.757812 420.699219 133.421875 432.410156 126.976562 444.414062 C 124.949219 443.738281 122.921875 443.0625 120.832031 442.367188 C 121.507812 438.3125 122.183594 434.257812 122.878906 430.078125 C 119.097656 428.664062 119.097656 428.664062 114.6875 428.03125 C 112.660156 429.382812 110.632812 430.734375 108.542969 432.128906 C 107.191406 429.425781 105.839844 426.722656 104.449219 423.9375 C 108.648438 420.78125 112.871094 417.675781 117.121094 414.59375 C 118.304688 413.695312 119.488281 412.800781 120.707031 411.875 C 126.53125 407.699219 129.777344 405.40625 137.0625 405.960938 Z M 137.0625 405.960938 "/>
<path style=" stroke:none;fill-rule:nonzero;fill:rgb(94.117647%,93.725491%,94.117647%);fill-opacity:1;" d="M 421.886719 348.160156 C 430.371094 349.386719 436.597656 352.269531 444.03125 356.480469 C 446.03125 357.601562 448.027344 358.722656 450.089844 359.878906 C 451.59375 360.742188 453.101562 361.605469 454.65625 362.496094 C 453.980469 365.199219 453.304688 367.902344 452.609375 370.6875 C 447.203125 369.335938 441.792969 367.984375 436.222656 366.59375 C 434.871094 369.296875 433.519531 372 432.128906 374.785156 C 437.195312 376.8125 437.195312 376.8125 442.367188 378.878906 C 442.367188 381.582031 442.367188 384.285156 442.367188 387.070312 C 434.402344 384.230469 428.101562 380.488281 421.246094 375.550781 C 419.441406 374.257812 417.632812 372.964844 415.769531 371.632812 C 414.410156 370.644531 413.046875 369.65625 411.648438 368.640625 C 412.324219 366.613281 413 364.585938 413.695312 362.496094 C 418.425781 363.847656 423.15625 365.199219 428.03125 366.59375 C 429.382812 363.886719 430.734375 361.183594 432.128906 358.398438 C 427.058594 356.371094 427.058594 356.371094 421.886719 354.304688 C 421.886719 352.277344 421.886719 350.25 421.886719 348.160156 Z M 421.886719 348.160156 "/>
<path style=" stroke:none;fill-rule:nonzero;fill:rgb(91.764706%,91.764706%,91.764706%);fill-opacity:1;" d="M 26.625 260.097656 C 38.789062 260.097656 50.953125 260.097656 63.488281 260.097656 C 63.488281 262.800781 63.488281 265.503906 63.488281 268.289062 C 57.40625 270.992188 51.324219 273.695312 45.054688 276.480469 C 51.136719 276.480469 57.222656 276.480469 63.488281 276.480469 C 63.488281 278.507812 63.488281 280.535156 63.488281 282.625 C 39.890625 287.328125 39.890625 287.328125 28.671875 286.71875 C 28.671875 284.015625 28.671875 281.3125 28.671875 278.527344 C 34.753906 275.148438 40.835938 271.769531 47.105469 268.289062 C 40.34375 267.613281 33.585938 266.9375 26.625 266.238281 C 26.625 264.210938 26.625 262.183594 26.625 260.097656 Z M 26.625 260.097656 "/>
<path style=" stroke:none;fill-rule:nonzero;fill:rgb(91.37255%,91.37255%,91.37255%);fill-opacity:1;" d="M 337.921875 51.199219 C 349.90625 52.121094 358.566406 57.421875 368.640625 63.488281 C 369.394531 71.417969 368.792969 75.46875 365.183594 82.6875 C 360.449219 88.0625 360.449219 88.0625 355.199219 89.214844 C 349.382812 87.875 347.335938 86.914062 344.0625 81.921875 C 343.679688 76.414062 343.679688 76.414062 344.0625 71.679688 C 346.765625 71.679688 349.472656 71.679688 352.257812 71.679688 C 352.257812 67.625 352.257812 63.570312 352.257812 59.390625 C 349.847656 58.949219 349.847656 58.949219 347.390625 58.496094 C 342.015625 57.34375 342.015625 57.34375 337.921875 55.296875 C 337.921875 53.945312 337.921875 52.59375 337.921875 51.199219 Z M 337.921875 51.199219 "/>
<path style=" stroke:none;fill-rule:nonzero;fill:rgb(93.333334%,93.333334%,93.333334%);fill-opacity:1;" d="M 193.535156 435.710938 C 200.703125 436.222656 200.703125 436.222656 204.800781 440.320312 C 205.054688 445.695312 205.054688 445.695312 204.800781 450.558594 C 202.773438 450.558594 200.746094 450.558594 198.65625 450.558594 C 198.65625 447.855469 198.65625 445.152344 198.65625 442.367188 C 195.277344 442.367188 191.898438 442.367188 188.414062 442.367188 C 193.992188 451.011719 193.992188 451.011719 200.703125 458.753906 C 201.4375 464.484375 201.394531 467.769531 198.527344 472.832031 C 192.160156 476.53125 187.152344 474.726562 180.222656 473.089844 C 176.128906 468.992188 176.128906 468.992188 175.871094 463.617188 C 175.957031 462.011719 176.039062 460.40625 176.128906 458.753906 C 178.15625 458.753906 180.183594 458.753906 182.273438 458.753906 C 182.949219 461.457031 183.625 464.160156 184.320312 466.945312 C 187.023438 467.621094 189.726562 468.296875 192.511719 468.992188 C 188.667969 458.964844 188.667969 458.964844 182.273438 450.558594 C 181.761719 445.441406 181.761719 445.441406 182.273438 440.320312 C 186.367188 436.222656 186.367188 436.222656 193.535156 435.710938 Z M 193.535156 435.710938 "/>
<path style=" stroke:none;fill-rule:nonzero;fill:rgb(95.294118%,95.294118%,95.294118%);fill-opacity:1;" d="M 387.457031 398.078125 C 389.355469 398.503906 391.257812 398.925781 393.214844 399.359375 C 392.539062 400.710938 391.863281 402.0625 391.167969 403.457031 C 385.921875 404.734375 385.921875 404.734375 380.929688 405.503906 C 380.929688 406.855469 380.929688 408.207031 380.929688 409.601562 C 382.65625 409.699219 384.382812 409.800781 386.160156 409.902344 C 389.527344 410.132812 389.527344 410.132812 392.960938 410.367188 C 395.195312 410.511719 397.425781 410.652344 399.726562 410.800781 C 405.503906 411.648438 405.503906 411.648438 409.601562 415.742188 C 409.472656 421.761719 409.472656 421.761719 407.550781 428.03125 C 402.816406 432 402.816406 432 397.3125 434.175781 C 392.433594 433.617188 389.402344 432.269531 385.023438 430.078125 C 385.023438 428.726562 385.023438 427.375 385.023438 425.984375 C 391.761719 423.738281 394.675781 424.347656 401.40625 425.984375 C 401.40625 423.28125 401.40625 420.578125 401.40625 417.792969 C 399.679688 417.863281 397.953125 417.933594 396.175781 418.007812 C 393.933594 418.0625 391.6875 418.117188 389.375 418.175781 C 387.140625 418.246094 384.910156 418.320312 382.609375 418.390625 C 380.703125 418.195312 378.796875 417.996094 376.832031 417.792969 C 372.734375 411.648438 372.734375 411.648438 373.121094 406.398438 C 375.808594 398.332031 379.269531 397.117188 387.457031 398.078125 Z M 387.457031 398.078125 "/>
<path style=" stroke:none;fill-rule:nonzero;fill:rgb(92.941177%,92.54902%,92.941177%);fill-opacity:1;" d="M 408.960938 375.425781 C 411.304688 376.121094 411.304688 376.121094 413.695312 376.832031 C 413.019531 378.859375 412.34375 380.886719 411.648438 382.976562 C 408.269531 382.976562 404.890625 382.976562 401.40625 382.976562 C 405.699219 391.105469 410.148438 396.25 417.792969 401.40625 C 419.820312 401.40625 421.847656 401.40625 423.9375 401.40625 C 423.261719 398.027344 422.585938 394.648438 421.886719 391.167969 C 424.589844 391.167969 427.292969 391.167969 430.078125 391.167969 C 431.742188 395.648438 431.742188 395.648438 432.128906 401.40625 C 427.777344 407.296875 427.777344 407.296875 421.886719 411.648438 C 415.164062 411.363281 412.1875 410.050781 406.992188 405.726562 C 405.570312 404.132812 404.152344 402.539062 402.6875 400.894531 C 401.234375 399.324219 399.785156 397.75 398.289062 396.128906 C 395.265625 391.167969 395.265625 391.167969 395.664062 385.679688 C 398.355469 377.921875 400.367188 374.425781 408.960938 375.425781 Z M 408.960938 375.425781 "/>
<path style=" stroke:none;fill-rule:nonzero;fill:rgb(92.941177%,92.941177%,92.941177%);fill-opacity:1;" d="M 432.128906 323.585938 C 434.15625 323.585938 436.183594 323.585938 438.273438 323.585938 C 436.921875 328.316406 435.570312 333.046875 434.175781 337.921875 C 437.554688 338.597656 440.933594 339.273438 444.414062 339.96875 C 445.09375 336.589844 445.769531 333.210938 446.464844 329.726562 C 448.492188 329.726562 450.519531 329.726562 452.609375 329.726562 C 451.257812 334.457031 449.90625 339.191406 448.511719 344.0625 C 454.59375 345.078125 454.59375 345.078125 460.800781 346.113281 C 461.476562 342.734375 462.152344 339.355469 462.847656 335.871094 C 464.875 335.871094 466.902344 335.871094 468.992188 335.871094 C 466.289062 342.628906 463.585938 349.390625 460.800781 356.351562 C 449.15625 352.980469 438.75 347.566406 428.03125 342.015625 C 429.027344 335.621094 430.078125 329.738281 432.128906 323.585938 Z M 432.128906 323.585938 "/>
<path style=" stroke:none;fill-rule:nonzero;fill:rgb(92.54902%,92.156863%,92.156863%);fill-opacity:1;" d="M 328.0625 432.894531 C 329.964844 433.320312 331.867188 433.742188 333.824219 434.175781 C 334.5 436.878906 335.175781 439.582031 335.871094 442.367188 C 331.816406 441.015625 327.761719 439.664062 323.585938 438.273438 C 322.808594 452.1875 322.808594 452.1875 327.679688 464.894531 C 332.898438 466.726562 332.898438 466.726562 337.921875 466.945312 C 338.597656 462.890625 339.273438 458.832031 339.96875 454.65625 C 341.320312 454.65625 342.671875 454.65625 344.0625 454.65625 C 344.792969 465.613281 344.792969 465.613281 341.886719 470.910156 C 335.277344 474.535156 330.621094 473.050781 323.585938 471.039062 C 314.996094 460.449219 314.542969 449.359375 315.390625 436.222656 C 321.535156 432.128906 321.535156 432.128906 328.0625 432.894531 Z M 328.0625 432.894531 "/>
<path style=" stroke:none;fill-rule:nonzero;fill:rgb(94.117647%,94.117647%,94.117647%);fill-opacity:1;" d="M 286.71875 444.414062 C 288.746094 444.414062 290.773438 444.414062 292.863281 444.414062 C 293.0625 456.9375 292.394531 468.855469 290.816406 481.28125 C 287.4375 481.28125 284.058594 481.28125 280.574219 481.28125 C 278.519531 476.25 276.472656 471.214844 274.433594 466.175781 C 273.847656 464.746094 273.261719 463.3125 272.65625 461.839844 C 268.289062 451.023438 268.289062 451.023438 268.289062 446.464844 C 272.097656 446.777344 272.097656 446.777344 276.480469 448.511719 C 280.144531 455.761719 282.175781 463.277344 284.671875 471.039062 C 285.347656 462.253906 286.023438 453.46875 286.71875 444.414062 Z M 286.71875 444.414062 "/>
<path style=" stroke:none;fill-rule:nonzero;fill:rgb(92.156863%,91.764706%,91.764706%);fill-opacity:1;" d="M 30.71875 294.910156 C 34.386719 294.746094 38.058594 294.628906 41.726562 294.527344 C 44.792969 294.421875 44.792969 294.421875 47.921875 294.3125 C 49.679688 294.511719 51.4375 294.707031 53.246094 294.910156 C 54.601562 296.941406 55.953125 298.96875 57.34375 301.054688 C 53.289062 301.054688 49.234375 301.054688 45.054688 301.054688 C 47.082031 304.097656 47.082031 304.097656 49.152344 307.199219 C 53.882812 305.847656 58.613281 304.496094 63.488281 303.105469 C 63.488281 305.132812 63.488281 307.160156 63.488281 309.246094 C 58.113281 312.984375 58.113281 312.984375 51.199219 316.800781 C 48.917969 318.074219 46.636719 319.351562 44.289062 320.664062 C 42.515625 321.628906 40.738281 322.589844 38.910156 323.585938 C 37.558594 320.878906 36.207031 318.175781 34.816406 315.390625 C 36.84375 314.714844 38.871094 314.039062 40.960938 313.34375 C 40.960938 309.289062 40.960938 305.234375 40.960938 301.054688 C 37.582031 301.054688 34.203125 301.054688 30.71875 301.054688 C 30.71875 299.027344 30.71875 297 30.71875 294.910156 Z M 30.71875 294.910156 "/>
<path style=" stroke:none;fill-rule:nonzero;fill:rgb(92.156863%,92.156863%,92.156863%);fill-opacity:1;" d="M 395.265625 102.398438 C 397.96875 102.398438 400.671875 102.398438 403.457031 102.398438 C 402.824219 104.132812 402.1875 105.863281 401.535156 107.648438 C 399.328125 114.789062 398.203125 121.613281 397.3125 129.023438 C 401.324219 128.792969 401.324219 128.792969 405.503906 126.976562 C 408.160156 121.875 408.160156 121.875 409.601562 116.734375 C 417.253906 119.285156 418.175781 122.128906 421.886719 129.023438 C 420.28125 129.617188 418.679688 130.207031 417.023438 130.816406 C 411.449219 132.8125 411.449219 132.8125 407.550781 137.214844 C 401.40625 136.832031 401.40625 136.832031 395.265625 135.167969 C 390.171875 127.527344 390.554688 123.746094 391.167969 114.6875 C 393.214844 107.648438 393.214844 107.648438 395.265625 102.398438 Z M 395.265625 102.398438 "/>
<path style=" stroke:none;fill-rule:nonzero;fill:rgb(94.509804%,94.509804%,94.509804%);fill-opacity:1;" d="M 356.351562 419.839844 C 354.304688 425.984375 354.304688 425.984375 350.207031 428.03125 C 350.207031 430.734375 350.207031 433.4375 350.207031 436.222656 C 354.261719 434.871094 358.316406 433.519531 362.496094 432.128906 C 361.144531 434.832031 359.792969 437.535156 358.398438 440.320312 C 357.046875 440.320312 355.695312 440.320312 354.304688 440.320312 C 355.65625 444.375 357.007812 448.429688 358.398438 452.609375 C 360.003906 451.59375 361.609375 450.582031 363.265625 449.535156 C 368.640625 446.464844 368.640625 446.464844 372.734375 446.464844 C 369.765625 454.296875 365.808594 457.09375 358.398438 460.800781 C 357.046875 460.800781 355.695312 460.800781 354.304688 460.800781 C 351.90625 455.769531 349.515625 450.734375 347.136719 445.695312 C 346.453125 444.265625 345.769531 442.835938 345.0625 441.359375 C 339.96875 430.542969 339.96875 430.542969 339.96875 425.984375 C 345.917969 421.800781 348.980469 419.839844 356.351562 419.839844 Z M 356.351562 419.839844 "/>
<path style=" stroke:none;fill-rule:nonzero;fill:rgb(95.294118%,94.901961%,95.294118%);fill-opacity:1;" d="M 212.992188 442.367188 C 219.074219 443.042969 225.15625 443.71875 231.425781 444.414062 C 231.425781 445.769531 231.425781 447.121094 231.425781 448.511719 C 227.367188 448.511719 223.3125 448.511719 219.136719 448.511719 C 219.136719 452.566406 219.136719 456.621094 219.136719 460.800781 C 222.515625 460.800781 225.894531 460.800781 229.375 460.800781 C 229.375 462.152344 229.375 463.503906 229.375 464.894531 C 224.644531 464.21875 219.914062 463.542969 215.039062 462.847656 C 215.039062 466.902344 215.039062 470.957031 215.039062 475.136719 C 219.09375 475.8125 223.148438 476.488281 227.328125 477.183594 C 227.328125 478.535156 227.328125 479.886719 227.328125 481.28125 C 221.246094 480.605469 215.164062 479.929688 208.894531 479.230469 C 206.359375 470.304688 207.539062 463.960938 209.792969 455.039062 C 210.378906 452.660156 210.96875 450.28125 211.574219 447.832031 C 212.042969 446.027344 212.511719 444.226562 212.992188 442.367188 Z M 212.992188 442.367188 "/>
<path style=" stroke:none;fill-rule:nonzero;fill:rgb(96.470588%,96.470588%,96.470588%);fill-opacity:1;" d="M 464.894531 184.320312 C 466.921875 184.996094 468.949219 185.671875 471.039062 186.367188 C 471.714844 190.421875 472.390625 194.476562 473.089844 198.65625 C 471.753906 198.757812 470.417969 198.855469 469.039062 198.960938 C 458.800781 199.835938 450.0625 201.402344 440.320312 204.800781 C 434.433594 205.054688 434.433594 205.054688 430.078125 204.800781 C 430.359375 200.992188 430.359375 200.992188 432.128906 196.609375 C 437.414062 194.015625 437.414062 194.015625 444.03125 192 C 446.199219 191.3125 448.367188 190.628906 450.601562 189.921875 C 456.703125 188.414062 456.703125 188.414062 464.894531 188.414062 C 464.894531 187.0625 464.894531 185.710938 464.894531 184.320312 Z M 464.894531 184.320312 "/>
<path style=" stroke:none;fill-rule:nonzero;fill:rgb(23.921569%,20.784314%,36.862746%);fill-opacity:1;" d="M 57.34375 159.742188 C 66.011719 161.015625 72.75 164.054688 80.511719 168.0625 C 82.699219 169.1875 84.890625 170.308594 87.144531 171.464844 C 88.800781 172.328125 90.453125 173.191406 92.160156 174.078125 C 85.566406 181.671875 79.242188 182.273438 69.632812 184.320312 C 68.789062 182.378906 67.941406 180.433594 67.070312 178.433594 C 63.480469 172.015625 62.035156 170.261719 55.296875 167.9375 C 55.972656 165.234375 56.648438 162.527344 57.34375 159.742188 Z M 57.34375 159.742188 "/>
<path style=" stroke:none;fill-rule:nonzero;fill:rgb(94.117647%,94.117647%,94.117647%);fill-opacity:1;" d="M 446.464844 260.097656 C 447.816406 260.097656 449.167969 260.097656 450.558594 260.097656 C 450.558594 264.828125 450.558594 269.558594 450.558594 274.433594 C 453.9375 274.433594 457.320312 274.433594 460.800781 274.433594 C 461.476562 269.699219 462.152344 264.96875 462.847656 260.097656 C 464.199219 260.773438 465.550781 261.449219 466.945312 262.144531 C 466.945312 266.875 466.945312 271.605469 466.945312 276.480469 C 471 276.480469 475.054688 276.480469 479.230469 276.480469 C 479.230469 271.074219 479.230469 265.667969 479.230469 260.097656 C 480.582031 260.097656 481.933594 260.097656 483.328125 260.097656 C 483.328125 266.855469 483.328125 273.613281 483.328125 280.574219 C 470.761719 280.75 458.890625 280.367188 446.464844 278.527344 C 446.464844 272.445312 446.464844 266.363281 446.464844 260.097656 Z M 446.464844 260.097656 "/>
<path style=" stroke:none;fill-rule:nonzero;fill:rgb(92.941177%,92.54902%,92.941177%);fill-opacity:1;" d="M 69.632812 315.390625 C 70.984375 315.390625 72.335938 315.390625 73.726562 315.390625 C 80.03125 328.5 80.03125 328.5 79.230469 334.71875 C 78.765625 335.777344 78.300781 336.832031 77.824219 337.921875 C 76.472656 336.566406 75.121094 335.214844 73.726562 333.824219 C 66.46875 334.703125 59.585938 336.933594 52.609375 339.070312 C 50.800781 339.625 48.992188 340.175781 47.128906 340.742188 C 45.769531 341.164062 44.410156 341.582031 43.007812 342.015625 C 42.332031 339.3125 41.65625 336.609375 40.960938 333.824219 C 44.582031 332.445312 48.210938 331.085938 51.839844 329.726562 C 53.859375 328.96875 55.878906 328.207031 57.960938 327.425781 C 63.488281 325.632812 63.488281 325.632812 69.632812 325.632812 C 69.632812 322.253906 69.632812 318.875 69.632812 315.390625 Z M 69.632812 315.390625 "/>
<path style=" stroke:none;fill-rule:nonzero;fill:rgb(92.54902%,92.54902%,92.54902%);fill-opacity:1;" d="M 151.550781 417.792969 C 153.578125 418.46875 155.605469 419.144531 157.695312 419.839844 C 156.367188 422.171875 156.367188 422.171875 155.007812 424.550781 C 153.867188 426.585938 152.726562 428.621094 151.550781 430.71875 C 150.410156 432.738281 149.269531 434.757812 148.097656 436.839844 C 144.960938 442.265625 144.960938 442.265625 145.40625 448.511719 C 150.414062 452.027344 150.414062 452.027344 155.648438 454.65625 C 154.972656 456.683594 154.296875 458.710938 153.601562 460.800781 C 150.5625 459.191406 147.535156 457.566406 144.511719 455.9375 C 142.824219 455.03125 141.136719 454.128906 139.398438 453.199219 C 135.167969 450.558594 135.167969 450.558594 133.121094 446.464844 C 135.625 441.8125 138.203125 437.453125 141.054688 433.023438 C 141.828125 431.789062 142.601562 430.554688 143.398438 429.285156 C 149.105469 420.238281 149.105469 420.238281 151.550781 417.792969 Z M 151.550781 417.792969 "/>
<path style=" stroke:none;fill-rule:nonzero;fill:rgb(26.274511%,23.921569%,41.176471%);fill-opacity:1;" d="M 89.984375 362.878906 C 91.378906 363.429688 92.773438 363.976562 94.207031 364.542969 C 93.445312 370.125 92.585938 372.34375 88.375 376.222656 C 86.878906 377.269531 85.382812 378.316406 83.839844 379.390625 C 82.335938 380.457031 80.835938 381.523438 79.289062 382.625 C 78.128906 383.414062 76.96875 384.207031 75.777344 385.023438 C 73.074219 383.671875 70.371094 382.320312 67.585938 380.929688 C 68.386719 375.984375 69.105469 373.289062 72.609375 369.625 C 82.632812 362.410156 82.632812 362.410156 89.984375 362.878906 Z M 89.984375 362.878906 "/>
<path style=" stroke:none;fill-rule:nonzero;fill:rgb(21.176471%,18.431373%,34.509805%);fill-opacity:1;" d="M 188.414062 442.367188 C 191.796875 442.367188 195.175781 442.367188 198.65625 442.367188 C 198.65625 445.070312 198.65625 447.773438 198.65625 450.558594 C 200.683594 450.558594 202.710938 450.558594 204.800781 450.558594 C 205.476562 448.53125 206.152344 446.503906 206.847656 444.414062 C 206.847656 446.445312 206.847656 448.472656 206.847656 450.558594 C 208.199219 450.558594 209.550781 450.558594 210.945312 450.558594 C 208.96875 469.832031 208.96875 469.832031 206.847656 479.230469 C 206.257812 477.921875 205.664062 476.613281 205.054688 475.265625 C 203.105469 470.730469 203.105469 470.730469 198.65625 468.992188 C 198.867188 467.554688 199.078125 466.121094 199.296875 464.640625 C 198.367188 456.113281 194.066406 452.820312 188.414062 446.464844 C 188.414062 445.113281 188.414062 443.761719 188.414062 442.367188 Z M 188.414062 442.367188 "/>
<path style=" stroke:none;fill-rule:nonzero;fill:rgb(96.078432%,96.078432%,96.078432%);fill-opacity:1;" d="M 26.625 260.097656 C 38.789062 260.097656 50.953125 260.097656 63.488281 260.097656 C 63.488281 262.800781 63.488281 265.503906 63.488281 268.289062 C 56.304688 271.570312 50.90625 272.835938 43.007812 272.382812 C 44.359375 271.03125 45.710938 269.679688 47.105469 268.289062 C 40.34375 267.613281 33.585938 266.9375 26.625 266.238281 C 26.625 264.210938 26.625 262.183594 26.625 260.097656 Z M 26.625 260.097656 "/>
<path style=" stroke:none;fill-rule:nonzero;fill:rgb(27.058825%,24.313726%,40.392157%);fill-opacity:1;" d="M 157.695312 63.488281 C 163.945312 74.234375 163.945312 74.234375 163.457031 81.40625 C 161.792969 86.015625 161.792969 86.015625 157.695312 90.113281 C 153.34375 89.34375 153.34375 89.34375 149.503906 88.0625 C 149.589844 85.824219 149.671875 83.585938 149.761719 81.28125 C 150.160156 73.546875 150.160156 73.546875 145.40625 67.585938 C 151.550781 63.488281 151.550781 63.488281 157.695312 63.488281 Z M 157.695312 63.488281 "/>
<path style=" stroke:none;fill-rule:nonzero;fill:rgb(29.019609%,26.666668%,40.784314%);fill-opacity:1;" d="M 96.257812 104.449219 C 98.285156 105.800781 100.3125 107.152344 102.398438 108.542969 C 102.398438 109.894531 102.398438 111.246094 102.398438 112.640625 C 101.089844 113.863281 99.78125 115.089844 98.433594 116.351562 C 93.691406 121.378906 92.910156 124.324219 92.160156 131.070312 C 86.753906 131.746094 81.347656 132.421875 75.777344 133.121094 C 78.585938 124.792969 82.371094 119.453125 88.320312 113.023438 C 89.804688 111.40625 91.289062 109.789062 92.816406 108.121094 C 93.953125 106.910156 95.085938 105.695312 96.257812 104.449219 Z M 96.257812 104.449219 "/>
<path style=" stroke:none;fill-rule:nonzero;fill:rgb(24.313726%,21.960784%,37.254903%);fill-opacity:1;" d="M 360.449219 65.535156 C 363.152344 66.886719 365.855469 68.238281 368.640625 69.632812 C 367.570312 77.335938 366.136719 82.578125 360.449219 88.0625 C 355.199219 88.832031 355.199219 88.832031 350.207031 88.0625 C 348.855469 86.710938 347.503906 85.359375 346.113281 83.96875 C 346.113281 81.941406 346.113281 79.914062 346.113281 77.824219 C 347.71875 77.316406 349.320312 76.808594 350.976562 76.289062 C 357.015625 73.414062 358.199219 71.667969 360.449219 65.535156 Z M 360.449219 65.535156 "/>
<path style=" stroke:none;fill-rule:nonzero;fill:rgb(92.54902%,92.156863%,92.54902%);fill-opacity:1;" d="M 303.105469 440.320312 C 304.457031 440.996094 305.808594 441.671875 307.199219 442.367188 C 308.945312 447.65625 308.945312 447.65625 310.527344 454.273438 C 311.0625 456.4375 311.59375 458.605469 312.144531 460.839844 C 313.34375 466.945312 313.34375 466.945312 313.34375 475.136719 C 311.316406 475.8125 309.289062 476.488281 307.199219 477.183594 C 303.492188 465.597656 300.324219 454.476562 299.007812 442.367188 C 300.359375 441.691406 301.710938 441.015625 303.105469 440.320312 Z M 303.105469 440.320312 "/>
<path style=" stroke:none;fill-rule:nonzero;fill:rgb(29.019609%,26.274511%,42.745098%);fill-opacity:1;" d="M 106.496094 83.96875 C 106.496094 90.113281 106.496094 90.113281 103.039062 94.59375 C 98.304688 98.304688 98.304688 98.304688 92.800781 98.945312 C 88.0625 98.304688 88.0625 98.304688 86.015625 96.257812 C 85.503906 91.265625 85.503906 91.265625 86.015625 86.015625 C 93.902344 80.757812 97.457031 82.261719 106.496094 83.96875 Z M 106.496094 83.96875 "/>
<path style=" stroke:none;fill-rule:nonzero;fill:rgb(95.294118%,95.294118%,95.294118%);fill-opacity:1;" d="M 83.96875 344.0625 C 83.96875 345.414062 83.96875 346.765625 83.96875 348.160156 C 79.671875 350.617188 75.363281 353.042969 71.039062 355.457031 C 69.820312 356.15625 68.601562 356.859375 67.347656 357.578125 C 64.097656 359.378906 60.722656 360.953125 57.34375 362.496094 C 55.316406 361.820312 53.289062 361.144531 51.199219 360.449219 C 53.246094 354.304688 53.246094 354.304688 58.609375 350.945312 C 60.808594 349.855469 63.011719 348.769531 65.28125 347.648438 C 67.472656 346.539062 69.664062 345.429688 71.921875 344.289062 C 77.824219 342.015625 77.824219 342.015625 83.96875 344.0625 Z M 83.96875 344.0625 "/>
<path style=" stroke:none;fill-rule:nonzero;fill:rgb(86.666667%,86.274511%,86.274511%);fill-opacity:1;" d="M 442.367188 311.296875 C 450.476562 311.296875 458.589844 311.296875 466.945312 311.296875 C 466.945312 311.972656 466.945312 312.648438 466.945312 313.34375 C 462.890625 314.019531 458.832031 314.695312 454.65625 315.390625 C 460.738281 317.417969 466.820312 319.445312 473.089844 321.535156 C 473.089844 323.5625 473.089844 325.589844 473.089844 327.679688 C 462.320312 326.300781 452.554688 323.085938 442.367188 319.488281 C 442.367188 316.785156 442.367188 314.082031 442.367188 311.296875 Z M 442.367188 311.296875 "/>
<path style=" stroke:none;fill-rule:nonzero;fill:rgb(98.431373%,98.431373%,98.431373%);fill-opacity:1;" d="M 466.945312 305.152344 C 470.324219 305.828125 473.703125 306.503906 477.183594 307.199219 C 477.183594 309.226562 477.183594 311.253906 477.183594 313.34375 C 466.371094 313.34375 455.558594 313.34375 444.414062 313.34375 C 444.414062 314.695312 444.414062 316.046875 444.414062 317.441406 C 442.386719 317.441406 440.359375 317.441406 438.273438 317.441406 C 438.273438 314.0625 438.273438 310.679688 438.273438 307.199219 C 448.171875 307.03125 457.1875 307.296875 466.945312 309.246094 C 466.945312 307.894531 466.945312 306.542969 466.945312 305.152344 Z M 466.945312 305.152344 "/>
<path style=" stroke:none;fill-rule:nonzero;fill:rgb(93.333334%,93.333334%,93.333334%);fill-opacity:1;" d="M 135.167969 413.695312 C 137.898438 421.152344 136.515625 425.304688 133.503906 432.511719 C 132.773438 434.316406 132.042969 436.117188 131.289062 437.976562 C 129.023438 442.367188 129.023438 442.367188 124.929688 444.414062 C 123.578125 443.738281 122.226562 443.0625 120.832031 442.367188 C 122.183594 437.636719 123.535156 432.90625 124.929688 428.03125 C 126.28125 428.03125 127.632812 428.03125 129.023438 428.03125 C 129.402344 425.625 129.402344 425.625 129.792969 423.167969 C 131.070312 417.792969 131.070312 417.792969 135.167969 413.695312 Z M 135.167969 413.695312 "/>
<path style=" stroke:none;fill-rule:nonzero;fill:rgb(92.54902%,92.156863%,92.156863%);fill-opacity:1;" d="M 131.070312 405.503906 C 134.453125 406.179688 137.832031 406.855469 141.3125 407.550781 C 140.636719 410.929688 139.960938 414.308594 139.265625 417.792969 C 137.238281 417.792969 135.207031 417.792969 133.121094 417.792969 C 131.769531 420.496094 130.417969 423.199219 129.023438 425.984375 C 126.320312 425.308594 123.617188 424.632812 120.832031 423.9375 C 123.976562 417.5 127.09375 411.472656 131.070312 405.503906 Z M 131.070312 405.503906 "/>
<path style=" stroke:none;fill-rule:nonzero;fill:rgb(86.666667%,86.274511%,86.274511%);fill-opacity:1;" d="M 53.246094 294.910156 C 57.980469 294.910156 62.710938 294.910156 67.585938 294.910156 C 67.585938 298.292969 67.585938 301.671875 67.585938 305.152344 C 65.726562 305.449219 63.867188 305.742188 61.953125 306.046875 C 56.902344 306.921875 52.042969 307.917969 47.105469 309.246094 C 46.429688 306.542969 45.753906 303.839844 45.054688 301.054688 C 48.433594 300.378906 51.8125 299.703125 55.296875 299.007812 C 54.621094 297.65625 53.945312 296.304688 53.246094 294.910156 Z M 53.246094 294.910156 "/>
<path style=" stroke:none;fill-rule:nonzero;fill:rgb(97.647059%,97.647059%,97.647059%);fill-opacity:1;" d="M 87.039062 355.585938 C 92.160156 356.351562 92.160156 356.351562 96 358.910156 C 98.304688 362.496094 98.304688 362.496094 97.664062 366.976562 C 96.96875 368.8125 96.96875 368.8125 96.257812 370.6875 C 94.90625 368.660156 93.550781 366.632812 92.160156 364.542969 C 84.542969 365.582031 78.367188 366.828125 71.679688 370.6875 C 75.25 362.726562 77.929688 356.949219 87.039062 355.585938 Z M 87.039062 355.585938 "/>
<path style=" stroke:none;fill-rule:nonzero;fill:rgb(98.823529%,98.823529%,98.823529%);fill-opacity:1;" d="M 30.71875 294.910156 C 34.386719 294.746094 38.058594 294.628906 41.726562 294.527344 C 44.792969 294.421875 44.792969 294.421875 47.921875 294.3125 C 49.679688 294.511719 51.4375 294.707031 53.246094 294.910156 C 54.601562 296.941406 55.953125 298.96875 57.34375 301.054688 C 53.289062 301.054688 49.234375 301.054688 45.054688 301.054688 C 44.378906 303.757812 43.703125 306.460938 43.007812 309.246094 C 42.332031 307.21875 41.65625 305.191406 40.960938 303.105469 C 37.582031 302.429688 34.203125 301.753906 30.71875 301.054688 C 30.71875 299.027344 30.71875 297 30.71875 294.910156 Z M 30.71875 294.910156 "/>
<path style=" stroke:none;fill-rule:nonzero;fill:rgb(95.686275%,95.686275%,95.686275%);fill-opacity:1;" d="M 100.351562 382.976562 C 101.703125 383.652344 103.054688 384.328125 104.449219 385.023438 C 102.59375 387.683594 100.710938 390.324219 98.816406 392.960938 C 97.246094 395.167969 97.246094 395.167969 95.648438 397.425781 C 92.007812 401.582031 89.03125 403.410156 83.96875 405.503906 C 83.96875 397.3125 83.96875 397.3125 87.550781 393.375 C 89.074219 392.140625 90.59375 390.90625 92.160156 389.632812 C 93.679688 388.375 95.203125 387.117188 96.769531 385.824219 C 97.949219 384.882812 99.132812 383.945312 100.351562 382.976562 Z M 100.351562 382.976562 "/>
<path style=" stroke:none;fill-rule:nonzero;fill:rgb(25.490198%,22.745098%,37.254903%);fill-opacity:1;" d="M 51.199219 176.128906 C 56.269531 178.15625 56.269531 178.15625 61.441406 180.222656 C 60.625 186.132812 59.820312 188.050781 55.167969 192 C 53.859375 192.84375 52.550781 193.691406 51.199219 194.558594 C 48.894531 188.800781 48.894531 188.800781 47.105469 182.273438 C 48.457031 180.246094 49.808594 178.21875 51.199219 176.128906 Z M 51.199219 176.128906 "/>
<path style=" stroke:none;fill-rule:nonzero;fill:rgb(90.196079%,90.588236%,90.588236%);fill-opacity:1;" d="M 432.128906 149.503906 C 442.113281 158.976562 442.113281 158.976562 444.414062 165.886719 C 442.386719 166.5625 440.359375 167.238281 438.273438 167.9375 C 436.921875 166.585938 435.570312 165.234375 434.175781 163.839844 C 432.148438 163.839844 430.121094 163.839844 428.03125 163.839844 C 429.824219 151.808594 429.824219 151.808594 432.128906 149.503906 Z M 432.128906 149.503906 "/>
<path style=" stroke:none;fill-rule:nonzero;fill:rgb(26.274511%,23.137255%,42.352942%);fill-opacity:1;" d="M 221.183594 40.960938 C 226.589844 40.960938 231.996094 40.960938 237.566406 40.960938 C 237.566406 44.339844 237.566406 47.71875 237.566406 51.199219 C 233.511719 51.199219 229.457031 51.199219 225.28125 51.199219 C 223.929688 47.820312 222.578125 44.441406 221.183594 40.960938 Z M 221.183594 40.960938 "/>
<path style=" stroke:none;fill-rule:nonzero;fill:rgb(32.156864%,30.19608%,41.568628%);fill-opacity:1;" d="M 245.761719 450.558594 C 249.140625 451.234375 252.519531 451.910156 256 452.609375 C 255.324219 455.988281 254.648438 459.367188 253.953125 462.847656 C 250.574219 462.847656 247.195312 462.847656 243.710938 462.847656 C 244.386719 458.792969 245.0625 454.738281 245.761719 450.558594 Z M 245.761719 450.558594 "/>
<path style=" stroke:none;fill-rule:nonzero;fill:rgb(87.450981%,87.450981%,87.450981%);fill-opacity:1;" d="M 479.230469 260.097656 C 480.582031 260.097656 481.933594 260.097656 483.328125 260.097656 C 483.328125 266.855469 483.328125 273.613281 483.328125 280.574219 C 476.570312 280.574219 469.8125 280.574219 462.847656 280.574219 C 462.847656 279.898438 462.847656 279.222656 462.847656 278.527344 C 468.253906 277.851562 473.660156 277.175781 479.230469 276.480469 C 479.230469 271.074219 479.230469 265.667969 479.230469 260.097656 Z M 479.230469 260.097656 "/>
<path style=" stroke:none;fill-rule:nonzero;fill:rgb(96.470588%,96.470588%,96.470588%);fill-opacity:1;" d="M 339.96875 69.632812 C 345.035156 71.660156 345.035156 71.660156 350.207031 73.726562 C 348.179688 74.402344 346.152344 75.078125 344.0625 75.777344 C 347.914062 83.089844 350.558594 87.136719 358.398438 90.113281 C 349.355469 92.800781 349.355469 92.800781 344.574219 90.238281 C 340.585938 83.652344 340.59375 77.269531 339.96875 69.632812 Z M 339.96875 69.632812 "/>
<path style=" stroke:none;fill-rule:nonzero;fill:rgb(90.980393%,90.980393%,90.980393%);fill-opacity:1;" d="M 217.089844 18.433594 C 227.410156 19.34375 232.195312 23.988281 239.617188 30.71875 C 238.265625 32.070312 236.914062 33.421875 235.519531 34.816406 C 232.4375 32.871094 229.367188 30.902344 226.304688 28.929688 C 224.59375 27.835938 222.882812 26.742188 221.121094 25.617188 C 219.789062 24.597656 218.457031 23.578125 217.089844 22.527344 C 217.089844 21.175781 217.089844 19.824219 217.089844 18.433594 Z M 217.089844 18.433594 "/>
<path style=" stroke:none;fill-rule:nonzero;fill:rgb(87.058824%,87.450981%,87.450981%);fill-opacity:1;" d="M 395.265625 102.398438 C 397.96875 102.398438 400.671875 102.398438 403.457031 102.398438 C 401.429688 110.511719 399.402344 118.621094 397.3125 126.976562 C 391.167969 118.785156 391.167969 118.785156 391.464844 114.398438 C 392.730469 110.398438 393.996094 106.398438 395.265625 102.398438 Z M 395.265625 102.398438 "/>
<path style=" stroke:none;fill-rule:nonzero;fill:rgb(96.862745%,96.862745%,96.862745%);fill-opacity:1;" d="M 385.023438 55.296875 C 387.726562 55.296875 390.429688 55.296875 393.214844 55.296875 C 393.890625 62.730469 394.566406 70.164062 395.265625 77.824219 C 387.550781 70.113281 387.25 65.738281 385.023438 55.296875 Z M 385.023438 55.296875 "/>
<path style=" stroke:none;fill-rule:nonzero;fill:rgb(23.529412%,20.784314%,34.901962%);fill-opacity:1;" d="M 96.257812 376.832031 C 97.609375 379.535156 98.960938 382.238281 100.351562 385.023438 C 94.269531 390.09375 94.269531 390.09375 88.0625 395.265625 C 86.710938 393.914062 85.359375 392.5625 83.96875 391.167969 C 86.484375 383.613281 89.984375 381.492188 96.257812 376.832031 Z M 96.257812 376.832031 "/>
<path style=" stroke:none;fill-rule:nonzero;fill:rgb(85.882354%,85.882354%,85.882354%);fill-opacity:1;" d="M 339.96875 454.65625 C 341.320312 454.65625 342.671875 454.65625 344.0625 454.65625 C 344.804688 465.773438 344.804688 465.773438 341.632812 470.785156 C 336.773438 473.800781 333.292969 473.542969 327.679688 473.089844 C 328.355469 471.058594 329.03125 469.03125 329.726562 466.945312 C 332.429688 466.945312 335.132812 466.945312 337.921875 466.945312 C 338.597656 462.890625 339.273438 458.832031 339.96875 454.65625 Z M 339.96875 454.65625 "/>
<path style=" stroke:none;fill-rule:nonzero;fill:rgb(88.627452%,88.627452%,88.627452%);fill-opacity:1;" d="M 176.128906 458.753906 C 178.15625 458.753906 180.183594 458.753906 182.273438 458.753906 C 183.625 463.484375 184.976562 468.214844 186.367188 473.089844 C 189.070312 473.765625 191.773438 474.441406 194.558594 475.136719 C 180.734375 473.601562 180.734375 473.601562 176.128906 468.992188 C 175.871094 463.617188 175.871094 463.617188 176.128906 458.753906 Z M 176.128906 458.753906 "/>
<path style=" stroke:none;fill-rule:nonzero;fill:rgb(31.764707%,29.803923%,41.960785%);fill-opacity:1;" d="M 77.824219 135.167969 C 83.230469 135.167969 88.636719 135.167969 94.207031 135.167969 C 93.53125 137.871094 92.855469 140.574219 92.160156 143.359375 C 88.78125 143.359375 85.402344 143.359375 81.921875 143.359375 C 80.566406 140.65625 79.214844 137.953125 77.824219 135.167969 Z M 77.824219 135.167969 "/>
<path style=" stroke:none;fill-rule:nonzero;fill:rgb(29.411766%,27.450982%,35.686275%);fill-opacity:1;" d="M 448.511719 292.863281 C 455.269531 293.539062 462.027344 294.214844 468.992188 294.910156 C 468.316406 296.941406 467.640625 298.96875 466.945312 301.054688 C 469.648438 301.730469 472.351562 302.40625 475.136719 303.105469 C 474.460938 304.457031 473.785156 305.808594 473.089844 307.199219 C 464.976562 303.144531 456.867188 299.089844 448.511719 294.910156 C 448.511719 294.234375 448.511719 293.558594 448.511719 292.863281 Z M 448.511719 292.863281 "/>
<path style=" stroke:none;fill-rule:nonzero;fill:rgb(27.843139%,25.490198%,37.64706%);fill-opacity:1;" d="M 188.414062 442.367188 C 191.796875 442.367188 195.175781 442.367188 198.65625 442.367188 C 199.332031 446.421875 200.007812 450.476562 200.703125 454.65625 C 198.675781 454.65625 196.648438 454.65625 194.558594 454.65625 C 188.414062 447.828125 188.414062 447.828125 188.414062 442.367188 Z M 188.414062 442.367188 "/>
<path style=" stroke:none;fill-rule:nonzero;fill:rgb(89.019608%,89.019608%,89.019608%);fill-opacity:1;" d="M 333.824219 434.175781 C 334.5 436.878906 335.175781 439.582031 335.871094 442.367188 C 334.773438 441.648438 333.675781 440.933594 332.542969 440.191406 C 326.179688 437.679688 321.957031 438.828125 315.390625 440.320312 C 316.066406 438.292969 316.742188 436.265625 317.441406 434.175781 C 323.300781 431.246094 327.542969 432.949219 333.824219 434.175781 Z M 333.824219 434.175781 "/>
<path style=" stroke:none;fill-rule:nonzero;fill:rgb(91.37255%,91.37255%,91.37255%);fill-opacity:1;" d="M 399.359375 425.984375 C 398.683594 428.6875 398.007812 431.390625 397.3125 434.175781 C 392.871094 433.140625 389.121094 432.128906 385.023438 430.078125 C 385.023438 428.726562 385.023438 427.375 385.023438 425.984375 C 390.484375 423.253906 393.558594 424.609375 399.359375 425.984375 Z M 399.359375 425.984375 "/>
<path style=" stroke:none;fill-rule:nonzero;fill:rgb(87.450981%,87.058824%,87.058824%);fill-opacity:1;" d="M 450.558594 296.960938 C 458.386719 298.046875 462.972656 300.027344 468.992188 305.152344 C 468.316406 306.503906 467.640625 307.855469 466.945312 309.246094 C 462.890625 309.246094 458.832031 309.246094 454.65625 309.246094 C 456.683594 307.894531 458.710938 306.542969 460.800781 305.152344 C 459.109375 304.179688 457.421875 303.207031 455.679688 302.207031 C 453.992188 301.152344 452.300781 300.097656 450.558594 299.007812 C 450.558594 298.332031 450.558594 297.65625 450.558594 296.960938 Z M 450.558594 296.960938 "/>
<path style=" stroke:none;fill-rule:nonzero;fill:rgb(95.686275%,95.686275%,95.686275%);fill-opacity:1;" d="M 215.039062 38.910156 C 207.488281 43.945312 201.324219 45.082031 192.511719 47.105469 C 191.835938 45.753906 191.160156 44.402344 190.464844 43.007812 C 198.902344 38.917969 205.726562 38.546875 215.039062 38.910156 Z M 215.039062 38.910156 "/>
<path style=" stroke:none;fill-rule:nonzero;fill:rgb(24.705882%,23.137255%,32.156864%);fill-opacity:1;" d="M 45.054688 301.054688 C 51.136719 301.054688 57.222656 301.054688 63.488281 301.054688 C 58.117188 305.46875 53.976562 308.019531 47.105469 309.246094 C 46.429688 306.542969 45.753906 303.839844 45.054688 301.054688 Z M 45.054688 301.054688 "/>
<path style=" stroke:none;fill-rule:nonzero;fill:rgb(97.647059%,97.647059%,97.647059%);fill-opacity:1;" d="M 145.40625 83.96875 C 146.082031 85.320312 146.757812 86.671875 147.457031 88.0625 C 152.632812 89.40625 152.632812 89.40625 157.695312 90.113281 C 157.695312 91.464844 157.695312 92.816406 157.695312 94.207031 C 151.808594 94.59375 151.808594 94.59375 145.40625 94.207031 C 144.054688 92.179688 142.703125 90.152344 141.3125 88.0625 C 142.664062 86.710938 144.015625 85.359375 145.40625 83.96875 Z M 145.40625 83.96875 "/>
<path style=" stroke:none;fill-rule:nonzero;fill:rgb(26.274511%,23.529412%,36.470589%);fill-opacity:1;" d="M 131.070312 432.128906 C 133.773438 432.804688 136.480469 433.480469 139.265625 434.175781 C 137.914062 438.230469 136.5625 442.285156 135.167969 446.464844 C 132.464844 445.113281 129.761719 443.761719 126.976562 442.367188 C 128.328125 438.988281 129.679688 435.609375 131.070312 432.128906 Z M 131.070312 432.128906 "/>
<path style=" stroke:none;fill-rule:nonzero;fill:rgb(89.803922%,89.411765%,89.803922%);fill-opacity:1;" d="M 356.351562 419.839844 C 355.675781 421.867188 355 423.894531 354.304688 425.984375 C 347.007812 428.414062 347.007812 428.414062 339.96875 430.078125 C 339.96875 428.726562 339.96875 427.375 339.96875 425.984375 C 345.917969 421.800781 348.980469 419.839844 356.351562 419.839844 Z M 356.351562 419.839844 "/>
<path style=" stroke:none;fill-rule:nonzero;fill:rgb(29.411766%,27.843139%,35.686275%);fill-opacity:1;" d="M 131.070312 413.695312 C 131.746094 415.046875 132.421875 416.398438 133.121094 417.792969 C 131.199219 422.144531 131.199219 422.144531 129.023438 425.984375 C 126.320312 425.308594 123.617188 424.632812 120.832031 423.9375 C 124.210938 420.558594 127.589844 417.175781 131.070312 413.695312 Z M 131.070312 413.695312 "/>
<path style=" stroke:none;fill-rule:nonzero;fill:rgb(94.509804%,94.117647%,94.117647%);fill-opacity:1;" d="M 53.246094 276.480469 C 58.625 276.097656 58.625 276.097656 63.488281 276.480469 C 63.488281 278.507812 63.488281 280.535156 63.488281 282.625 C 58.757812 282.625 54.027344 282.625 49.152344 282.625 C 50.503906 280.597656 51.855469 278.570312 53.246094 276.480469 Z M 53.246094 276.480469 "/>
<path style=" stroke:none;fill-rule:nonzero;fill:rgb(96.078432%,96.078432%,96.078432%);fill-opacity:1;" d="M 423.9375 389.121094 C 426.640625 390.472656 429.34375 391.824219 432.128906 393.214844 C 432.128906 395.242188 432.128906 397.269531 432.128906 399.359375 C 430.101562 400.035156 428.074219 400.710938 425.984375 401.40625 C 424.632812 398.027344 423.28125 394.648438 421.886719 391.167969 C 422.5625 390.492188 423.238281 389.816406 423.9375 389.121094 Z M 423.9375 389.121094 "/>
</g>
</svg>
