<?xml version="1.0" encoding="UTF-8"?>
<svg version="1.1" xmlns="http://www.w3.org/2000/svg" width="250" height="250">
<path d="M0 0 C0.80119263 0.00054382 1.60238525 0.00108765 2.42785645 0.00164795 C14.22563632 0.03853261 25.17075767 0.59200623 36.4375 4.375 C37.10507324 4.58930664 37.77264648 4.80361328 38.46044922 5.02441406 C58.84897471 11.64237627 80.39359839 23.60122632 93.875 40.625 C94.63425781 41.58019531 95.39351562 42.53539062 96.17578125 43.51953125 C96.92214844 44.46183594 97.66851562 45.40414062 98.4375 46.375 C99.13230469 47.20386719 99.82710937 48.03273437 100.54296875 48.88671875 C122.71506046 75.51896044 126.97701803 107.82860847 125.4375 141.375 C122.78672921 169.53351315 108.66877222 194.21110756 89.4375 214.375 C88.92606445 214.91632568 88.41462891 215.45765137 87.88769531 216.01538086 C83.72846907 220.31422985 79.34560847 223.90296799 74.4375 227.3125 C73.6962085 227.82828613 72.95491699 228.34407227 72.19116211 228.87548828 C43.56802476 248.45829393 8.99854436 255.22374936 -25.26757812 248.8515625 C-46.3429272 244.39819865 -64.19961282 235.08438102 -80.93554688 221.67773438 C-82.26085269 220.61653512 -83.60445151 219.57821355 -84.953125 218.546875 C-91.05997654 213.63160425 -95.64338317 207.27624446 -100.31542969 201.03955078 C-101.3785166 199.62057534 -102.45719893 198.21330593 -103.5390625 196.80859375 C-110.87784337 186.90626614 -116.00859767 175.69785874 -119.9375 164.0625 C-120.17605713 163.35867187 -120.41461426 162.65484375 -120.66040039 161.9296875 C-124.24262931 150.7648367 -124.93539631 139.93721827 -124.93310547 128.29858398 C-124.93744978 125.84091294 -124.97379589 123.38508615 -125.01171875 120.92773438 C-125.12474596 104.92155777 -122.1098566 90.03195109 -115.5625 75.375 C-115.2948584 74.76479004 -115.0272168 74.15458008 -114.75146484 73.52587891 C-109.77537137 62.34020521 -103.29428642 52.8339657 -95.5625 43.375 C-94.90773682 42.55539795 -94.90773682 42.55539795 -94.23974609 41.71923828 C-78.13559745 21.78106588 -53.1949499 8.38823864 -28.5625 2.375 C-27.77367432 2.18212402 -26.98484863 1.98924805 -26.17211914 1.79052734 C-17.51690756 -0.05296296 -8.8059642 -0.02240761 0 0 Z " fill="#352C63" transform="translate(124.5625,-0.375)"/>
<path d="M0 0 C15.70209019 12.2599726 26.44241882 29.5464574 29.67724609 49.30957031 C31.64412737 71.57848301 27.25354196 92.31828599 13.42724609 110.18457031 C2.36020363 122.78135755 -11.81932413 132.56391134 -28.32275391 136.30957031 C-29.03689453 136.51195312 -29.75103516 136.71433594 -30.48681641 136.92285156 C-48.59261574 141.49596583 -67.69865719 138.02812255 -83.93994141 129.35253906 C-102.4170413 118.19373624 -116.28905962 101.88216649 -122.00244141 80.80175781 C-126.00882954 61.53816557 -124.39559643 40.03076835 -114.10009766 22.95019531 C-103.51865057 7.22918821 -91.76301707 -3.15529524 -74.32275391 -10.69042969 C-73.32244141 -11.14675781 -72.32212891 -11.60308594 -71.29150391 -12.07324219 C-48.58833036 -20.8005374 -19.03632007 -14.03935402 0 0 Z " fill="#FDFAFA" transform="translate(171.32275390625,63.6904296875)"/>
<path d="M0 0 C-0.226875 0.53496094 -0.45375 1.06992187 -0.6875 1.62109375 C-1.14688652 5.11817364 0.31053314 7.01919697 2 10.0625 C3.75 13.22265625 3.75 13.22265625 5 16 C4.505 17.485 4.505 17.485 4 19 C2.515 18.505 2.515 18.505 1 18 C1 17.34 1 16.68 1 16 C0.319375 16.495 -0.36125 16.99 -1.0625 17.5 C-4.65461496 19.33427147 -7.01285999 19.36917963 -11 19 C-11.99 18.34 -12.98 17.68 -14 17 C-13.505 15.515 -13.505 15.515 -13 14 C-12.34 14 -11.68 14 -11 14 C-11.66 12.68 -12.32 11.36 -13 10 C-16.93075644 10.57452746 -16.93075644 10.57452746 -20 13 C-19.62154361 17.57058877 -16.3172913 20.51276913 -13.49609375 23.87890625 C-12 26 -12 26 -12 29 C-16.29227942 28.53730015 -18.02922065 26.09840542 -20.75 22.9375 C-21.54921875 22.01839844 -22.3484375 21.09929688 -23.171875 20.15234375 C-23.77515625 19.44207031 -24.3784375 18.73179688 -25 18 C-26.98 18.99 -26.98 18.99 -29 20 C-29.20452795 22.87479218 -29.20452795 22.87479218 -28.1875 24.8125 C-28 27 -28 27 -30.4375 30.0625 C-31.283125 31.031875 -32.12875 32.00125 -33 33 C-33 33.99 -33 34.98 -33 36 C-29.58343976 36.16677282 -29.58343976 36.16677282 -26 36 C-23.64046906 33.64046906 -23.50858587 32.22104383 -23 29 C-22.01 29 -21.02 29 -20 29 C-20 30.65 -20 32.3 -20 34 C-17.69 34 -15.38 34 -13 34 C-13 34.66 -13 35.32 -13 36 C-15.31 36 -17.62 36 -20 36 C-20 38.64 -20 41.28 -20 44 C-20.66 44 -21.32 44 -22 44 C-22.495 41.03 -22.495 41.03 -23 38 C-23.99 38.66 -24.98 39.32 -26 40 C-27.670625 40.1546875 -27.670625 40.1546875 -29.375 40.3125 C-33.16949158 40.66727785 -33.16949158 40.66727785 -35.5 43.625 C-38 46 -38 46 -41.625 45.9375 C-45 45 -45 45 -48 43 C-48.495 45.475 -48.495 45.475 -49 48 C-44.71 50.31 -40.42 52.62 -36 55 C-36.33 55.99 -36.66 56.98 -37 58 C-41.23322844 57.37954537 -44.52290295 55.89476441 -48.3125 53.9375 C-49.38113281 53.38964844 -50.44976562 52.84179688 -51.55078125 52.27734375 C-52.35902344 51.85582031 -53.16726562 51.43429688 -54 51 C-54 52.32 -54 53.64 -54 55 C-53.195625 55.474375 -52.39125 55.94875 -51.5625 56.4375 C-49 58 -49 58 -48.1875 60.6875 C-48.125625 61.450625 -48.06375 62.21375 -48 63 C-46.8553125 62.505 -46.8553125 62.505 -45.6875 62 C-43 61 -43 61 -40 61 C-40.09765625 62.859375 -40.09765625 62.859375 -41 65 C-43.87109375 66.265625 -43.87109375 66.265625 -47.4375 67.25 C-49.19900391 67.75273437 -49.19900391 67.75273437 -50.99609375 68.265625 C-54 69 -54 69 -56 69 C-55.625 67.0625 -55.625 67.0625 -55 65 C-54.01 64.505 -54.01 64.505 -53 64 C-53 63.01 -53 62.02 -53 61 C-54.32 60.67 -55.64 60.34 -57 60 C-58.485 64.95 -58.485 64.95 -60 70 C-60.99 70 -61.98 70 -63 70 C-61.74797307 63.44642151 -59.8906511 57.81587207 -57 51.8125 C-56.60989746 50.99458984 -56.21979492 50.17667969 -55.81787109 49.33398438 C-51.52481544 40.61515078 -46.1815768 31.67191651 -39 25 C-40.65 24.34 -42.3 23.68 -44 23 C-44.34751969 20.08083462 -44.53280018 17.86804524 -42.95703125 15.30078125 C-41.15362765 13.11660035 -39.55587616 11.27793808 -37 10 C-34.94140625 10.0859375 -34.94140625 10.0859375 -32.5625 10.375 C-31.78003906 10.46523438 -30.99757812 10.55546875 -30.19140625 10.6484375 C-28 11 -28 11 -25 12 C-22.82611796 10.76552273 -22.82611796 10.76552273 -20.5625 8.9375 C-5.72371603 -1.90790534 -5.72371603 -1.90790534 0 0 Z " fill="#F2F2F2" transform="translate(82,27)"/>
<path d="M0 0 C2 1.6875 2 1.6875 3 4 C2.86768868 7.24162743 2.55469295 9.24360053 0.625 11.875 C-1 13 -1 13 -4 13 C-3.65066406 13.79664063 -3.30132812 14.59328125 -2.94140625 15.4140625 C-2.25884766 17.00347656 -2.25884766 17.00347656 -1.5625 18.625 C-0.88380859 20.19121094 -0.88380859 20.19121094 -0.19140625 21.7890625 C2.94669218 30.24649499 2.94822763 40.23297565 1 49 C-13.14894147 47.82092154 -25.19784896 43.84666173 -37 36 C-34.27017195 26.2939447 -23.41039646 17.55698076 -15.3203125 12.23828125 C-13 11 -13 11 -11 11 C-11.04640625 10.38511719 -11.0928125 9.77023438 -11.140625 9.13671875 C-11.43303061 2.58892163 -11.43303061 2.58892163 -9.4375 -0.125 C-5.90953451 -1.39144915 -3.58621578 -0.97805885 0 0 Z " fill="#E1262D" transform="translate(120,145)"/>
<path d="M0 0 C14.02430044 23.88326379 14.02430044 23.88326379 13 37 C9.4758498 38.7620751 5.44513589 38.23564321 1.5625 38.25 C0.65757812 38.25394775 -0.24734375 38.25789551 -1.1796875 38.26196289 C-7.10475755 38.21042668 -12.29702661 37.60741723 -17.90625 35.55859375 C-20.3527585 34.90588719 -21.65301802 35.0988811 -24 36 C-24.433125 36.53625 -24.86625 37.0725 -25.3125 37.625 C-27 39 -27 39 -30.5 38.9375 C-34 38 -34 38 -36 36.375 C-37.46981805 32.88418213 -36.98413921 30.60851044 -36 27 C-34.3125 25 -34.3125 25 -32 24 C-28.98266875 24.2413865 -26.70716958 24.64641521 -24 26 C-23.7421875 25.12085937 -23.484375 24.24171875 -23.21875 23.3359375 C-20.24141034 15.18642446 -9.84602009 0 0 0 Z " fill="#E1262D" transform="translate(179,82)"/>
<path d="M0 0 C12.64702078 0.28922501 25.8797207 4.20205847 36 12 C36.66 12.99 37.32 13.98 38 15 C31.02616134 24.83490067 23.49319959 31.86967854 13 38 C12.34 38 11.68 38 11 38 C11.2475 39.0725 11.495 40.145 11.75 41.25 C12 45 12 45 10.5 47.4375 C7.11594538 49.55253414 4.92005446 49.49891602 1 49 C-0.9375 48 -0.9375 48 -2 46 C-2.45939284 43.24364298 -2.53264303 40.74912532 -2 38 C-0.125 36 -0.125 36 2 35 C2.66 35 3.32 35 4 35 C3.58427734 33.89591797 3.58427734 33.89591797 3.16015625 32.76953125 C2.61681641 31.30580078 2.61681641 31.30580078 2.0625 29.8125 C1.70285156 28.84957031 1.34320313 27.88664062 0.97265625 26.89453125 C-0.73076537 21.82531268 -1.13652927 17.3495829 -1.125 12 C-1.12757812 10.80375 -1.13015625 9.6075 -1.1328125 8.375 C-1.01757938 5.44672307 -0.67823563 2.84213024 0 0 Z " fill="#E1252C" transform="translate(128,56)"/>
<path d="M0 0 C3 0.5 3 0.5 5.375 2.125 C7.48706506 5.21186432 7.61195145 6.8282913 7 10.5 C5.5 12.875 5.5 12.875 3 14.5 C0.24150058 14.82638734 -2.20484912 14.68634339 -5 14.5 C-5.32871094 15.25023437 -5.65742187 16.00046875 -5.99609375 16.7734375 C-10.71766898 26.93314138 -16.62428204 35.64328096 -27 40.5 C-35.15281505 30.94818119 -44.01096276 17.64251584 -43 4.5 C-40.13073477 2.87425793 -38.0611133 2.24472008 -34.76953125 2.234375 C-33.96580078 2.23179687 -33.16207031 2.22921875 -32.33398438 2.2265625 C-31.08584961 2.23816406 -31.08584961 2.23816406 -29.8125 2.25 C-28.59336914 2.23839844 -28.59336914 2.23839844 -27.34960938 2.2265625 C-22.35503684 2.24245613 -17.84832657 2.80567223 -13.0144043 4.07128906 C-10.69119005 4.63877382 -10.69119005 4.63877382 -7 4.5 C-6.38125 3.84 -5.7625 3.18 -5.125 2.5 C-3 0.5 -3 0.5 0 0 Z " fill="#E1252C" transform="translate(99,129.5)"/>
<path d="M0 0 C4.42819625 0.90371352 5.49054818 2.99400919 8.0625 6.625 C8.61292969 6.33625 9.16335937 6.0475 9.73046875 5.75 C19.21714821 1.51408731 29.83760422 1.71104988 40.0625 2.625 C40.7225 2.955 41.3825 3.285 42.0625 3.625 C42.9246469 16.55720351 37.00263301 30.6431185 29.0625 40.625 C20.77852803 38.29513288 14.126055 30.24657193 9.0625 23.625 C8.25664404 22.17445927 7.46438094 20.71626335 6.6875 19.25 C5.23142393 16.75178253 4.56085095 15.81199032 1.82421875 14.78515625 C-0.59377848 14.28111333 -0.59377848 14.28111333 -2.94921875 14.07421875 C-4.9375 13.625 -4.9375 13.625 -6.9375 10.625 C-7.39905369 7.00949608 -7.39156883 5.28863906 -5.3125 2.25 C-2.9375 0.625 -2.9375 0.625 0 0 Z " fill="#E1252C" transform="translate(149.9375,126.375)"/>
<path d="M0 0 C2 1.6875 2 1.6875 3 4 C2.7586135 7.01733125 2.35358479 9.29283042 1 12 C1.73347656 12.11859375 2.46695313 12.2371875 3.22265625 12.359375 C13.72200482 14.78116567 22.3851287 23.12916783 28 32 C28 32.99 28 33.98 28 35 C3.53498671 49.20549159 3.53498671 49.20549159 -5.1875 49.0625 C-6.445625 49.041875 -7.70375 49.02125 -9 49 C-11.7079203 37.84074779 -11.17635855 23.35271709 -6 13 C-6.639375 12.690625 -7.27875 12.38125 -7.9375 12.0625 C-10 11 -10 11 -11 10 C-11.58309038 2.7696793 -11.58309038 2.7696793 -9.4375 -0.0625 C-5.90893904 -1.41963883 -3.61224884 -0.98515877 0 0 Z " fill="#E1242B" transform="translate(141,144)"/>
<path d="M0 0 C8.49766032 0.98107979 14.36255916 9.00159571 19.4375 15.3125 C21.19764106 17.59443652 22.90811822 19.86181934 24.50390625 22.26171875 C26.00599074 24.39255887 26.00599074 24.39255887 29.5 24.5 C33 25 33 25 34.9375 26.75 C36.24693207 29.52291498 36.60496057 30.97519717 36 34 C33.57447386 36.56412763 31.91803481 37.82087126 28.4375 38.5 C25.22711973 37.84146046 24.01201933 36.53365397 22 34 C22 33.34 22 32.68 22 32 C20.63681641 32.54140625 20.63681641 32.54140625 19.24609375 33.09375 C9.13303365 36.90226518 -1.27724289 39.2460952 -12 36 C-11.69868478 22.82430723 -7.42039379 10.83734488 0 0 Z " fill="#E1262D" transform="translate(68,85)"/>
<path d="M0 0 C2.00478116 5.02393366 2.34841764 9.36383271 2.3125 14.6875 C2.31121094 15.47753418 2.30992188 16.26756836 2.30859375 17.08154297 C2.20568314 23.38095859 1.19480976 29.06878791 -1 35 C-0.360625 35.309375 0.27875 35.61875 0.9375 35.9375 C3 37 3 37 4 38 C4.28551032 41.2119911 4.26287757 43.4123913 2.9375 46.375 C1 48 1 48 -2.5 48.4375 C-6 48 -6 48 -7.875 46.875 C-9.45228903 44.24618495 -9.8096754 42.04519365 -10 39 C-9.34 38.01 -8.68 37.02 -8 36 C-8.78375 35.95875 -9.5675 35.9175 -10.375 35.875 C-20.63572602 33.39827303 -29.16864263 25.59545643 -35 17 C-35 16.34 -35 15.68 -35 15 C-32.92544026 13.45846583 -30.87068166 12.0601237 -28.6875 10.6875 C-28.05610107 10.28595703 -27.42470215 9.88441406 -26.77416992 9.47070312 C-18.30216827 4.18624007 -10.12358704 -0.19101108 0 0 Z " fill="#E1262D" transform="translate(114,58)"/>
<path d="M0 0 C1.32 0 2.64 0 4 0 C4.14695313 1.21236328 4.14695313 1.21236328 4.296875 2.44921875 C5.28999425 9.54659681 6.11435537 13.71350238 11.72265625 18.45703125 C26.10899833 30.66969142 40.45423507 50.76211728 43 70 C42.34773438 70.04898438 41.69546875 70.09796875 41.0234375 70.1484375 C36.02305471 70.57619886 31.75689181 71.34061913 27 73 C24.125 73.125 24.125 73.125 22 73 C22.1328125 71.140625 22.1328125 71.140625 23 69 C25.6171875 67.734375 25.6171875 67.734375 28.875 66.75 C30.47988281 66.24726563 30.47988281 66.24726563 32.1171875 65.734375 C35 65 35 65 38 65 C37.505 62.03 37.505 62.03 37 59 C31.39 61.31 25.78 63.62 20 66 C19.67 64.35 19.34 62.7 19 61 C21.97 60.01 24.94 59.02 28 58 C26.20142332 55.4390706 26.20142332 55.4390706 24 53 C23.01 53 22.02 53 21 53 C21.33 51.02 21.66 49.04 22 47 C22.99 47 23.98 47 25 47 C26.38671875 48.4609375 26.38671875 48.4609375 27.6875 50.375 C28.12449219 51.00148437 28.56148437 51.62796875 29.01171875 52.2734375 C30 54 30 54 30 56 C30.99 55.67 31.98 55.34 33 55 C32.42176904 50.93774452 31.10882263 48.15237654 28.9375 44.6875 C28.38964844 43.80449219 27.84179688 42.92148438 27.27734375 42.01171875 C26.85582031 41.34785156 26.43429688 40.68398437 26 40 C22.39234967 41.31535569 19.45008538 42.91963438 16.3125 45.125 C12.22009569 48 12.22009569 48 10 48 C9.67 46.68 9.34 45.36 9 44 C9.5053125 43.66226563 10.010625 43.32453125 10.53125 42.9765625 C11.1809375 42.53054687 11.830625 42.08453125 12.5 41.625 C13.1496875 41.18414062 13.799375 40.74328125 14.46875 40.2890625 C14.9740625 39.86367187 15.479375 39.43828125 16 39 C16 38.34 16 37.68 16 37 C15.443125 37.309375 14.88625 37.61875 14.3125 37.9375 C11.74525463 39.11704517 9.8341528 39.85829236 7 40 C4.6875 38.5 4.6875 38.5 3 36 C2.46447942 31.18031481 3.24800337 27.48949137 5 23 C6.32 23 7.64 23 9 23 C8.5359375 24.2684375 8.5359375 24.2684375 8.0625 25.5625 C6.98461179 29.0497854 6.43418696 32.38177535 6 36 C7.95894361 35.88693303 7.95894361 35.88693303 10 35 C11.29660434 32.50965614 11.29660434 32.50965614 12 30 C15.68802044 31.22934015 16.72356973 32.93859378 19 36 C19.99 35.67 20.98 35.34 22 35 C14.74951219 24.19661699 14.74951219 24.19661699 4 18 C0.7 21.96 -2.6 25.92 -6 30 C-6.99 29.67 -7.98 29.34 -9 29 C-7.01848687 24.69671391 -4.23674609 21.06034054 -1.4609375 17.2421875 C0.18197051 15.16674295 0.18197051 15.16674295 0 13 C-1.32 12.67 -2.64 12.34 -4 12 C-6.97 16.29 -9.94 20.58 -13 25 C-13.99 24.67 -14.98 24.34 -16 24 C-15.67 22.68 -15.34 21.36 -15 20 C-15.969375 19.34 -16.93875 18.68 -17.9375 18 C-20.68983267 15.75280133 -21.46800363 14.21271475 -21.875 10.6875 C-21.91625 9.470625 -21.9575 8.25375 -22 7 C-19.525 7.99 -19.525 7.99 -17 9 C-17.99 9.33 -18.98 9.66 -20 10 C-18.8624438 12.59141286 -18.8624438 12.59141286 -17 15 C-14.5 15.83333333 -14.5 15.83333333 -12 15 C-9.27491491 11.71110421 -8.63853209 9.21712557 -9 5 C-4.80639551 5.67097672 -1.59665648 7.8558394 2 10 C1.34 6.7 0.68 3.4 0 0 Z " fill="#EFEFF0" transform="translate(188,27)"/>
<path d="M0 0 C3.84731418 0.23317056 5.51697785 1.37542755 8.12890625 4.01171875 C12.26014136 7.63972477 15.53636262 7.78506725 20.875 7.6875 C30.16890953 7.82588678 38.90771757 9.14894634 48 11 C48 11.99 48 12.98 48 14 C47.01 14 46.02 14 45 14 C43.68 19.28 42.36 24.56 41 30 C40.01 30 39.02 30 38 30 C38.48320848 23.7945858 39.33318124 18.00054754 41 12 C39.02 11.67 37.04 11.34 35 11 C34.34 16.94 33.68 22.88 33 29 C31.68 29 30.36 29 29 29 C29.33 27.02 29.66 25.04 30 23 C29.01 23.495 29.01 23.495 28 24 C22.74534161 24.44720497 22.74534161 24.44720497 20.125 22.875 C18.49468706 20.15781176 18.66984335 18.10347254 19 15 C21 13 21 13 24.625 12.875 C26.295625 12.936875 26.295625 12.936875 28 13 C28 13.66 28 14.32 28 15 C26.68 15.33 25.36 15.66 24 16 C24 17.65 24 19.3 24 21 C25.65 20.67 27.3 20.34 29 20 C29.66 16.7 30.32 13.4 31 10 C25.06 10 19.12 10 13 10 C13.2475 11.9490625 13.2475 11.9490625 13.5 13.9375 C14.0315638 18.65419287 14.07529541 23.25638935 14 28 C13.01 28 12.02 28 11 28 C10.505 23.05 10.505 23.05 10 18 C7.36 18.99 4.72 19.98 2 21 C3.98 23.97 3.98 23.97 6 27 C1.2047363 27 0.32445916 26.01007087 -3.25 23 C-4.14203125 22.2575 -5.0340625 21.515 -5.953125 20.75 C-6.62859375 20.1725 -7.3040625 19.595 -8 19 C-7.01 18.01 -6.02 17.02 -5 16 C-3.68 16.66 -2.36 17.32 -1 18 C-0.67 16.02 -0.34 14.04 0 12 C-3.96 12.66 -7.92 13.32 -12 14 C-12.33 13.34 -12.66 12.68 -13 12 C-6.63460728 9.88706171 -0.68993219 8.53951066 6 8 C6 7.34 6 6.68 6 6 C5.01 5.34 4.02 4.68 3 4 C2.01 3.34 1.02 2.68 0 2 C0 1.34 0 0.68 0 0 Z " fill="#F0F0F0" transform="translate(106,9)"/>
<path d="M0 0 C-0.226875 0.53496094 -0.45375 1.06992187 -0.6875 1.62109375 C-1.14688652 5.11817364 0.31053314 7.01919697 2 10.0625 C3.75 13.22265625 3.75 13.22265625 5 16 C4.67 16.99 4.34 17.98 4 19 C3.01 18.67 2.02 18.34 1 18 C1 17.34 1 16.68 1 16 C0.319375 16.495 -0.36125 16.99 -1.0625 17.5 C-4.65461496 19.33427147 -7.01285999 19.36917963 -11 19 C-11.99 18.34 -12.98 17.68 -14 17 C-13.67 16.01 -13.34 15.02 -13 14 C-12.34 14 -11.68 14 -11 14 C-12.86566488 10.37206002 -12.86566488 10.37206002 -16 8 C-15 5 -15 5 -12.3828125 3.359375 C-11.30773437 2.82828125 -10.23265625 2.2971875 -9.125 1.75 C-8.05507812 1.20859375 -6.98515625 0.6671875 -5.8828125 0.109375 C-3 -1 -3 -1 0 0 Z " fill="#F2F2F2" transform="translate(82,27)"/>
<path d="M0 0 C0.33 0 0.66 0 1 0 C1.02964844 1.07378906 1.05929688 2.14757812 1.08984375 3.25390625 C1.63161102 7.20983639 1.63161102 7.20983639 4.94140625 9.21484375 C6.13562601 9.81525258 7.34354981 10.38903664 8.5625 10.9375 C9.17802734 11.23978516 9.79355469 11.54207031 10.42773438 11.85351562 C11.94063462 12.59237388 13.46898907 13.29944006 15 14 C14.67 14.99 14.34 15.98 14 17 C9.76677156 16.37954537 6.47709705 14.89476441 2.6875 12.9375 C1.61886719 12.38964844 0.55023438 11.84179688 -0.55078125 11.27734375 C-1.35902344 10.85582031 -2.16726562 10.43429688 -3 10 C-3 11.32 -3 12.64 -3 14 C-2.195625 14.474375 -1.39125 14.94875 -0.5625 15.4375 C2 17 2 17 2.8125 19.6875 C2.874375 20.450625 2.93625 21.21375 3 22 C3.763125 21.67 4.52625 21.34 5.3125 21 C8 20 8 20 11 20 C10.90234375 21.859375 10.90234375 21.859375 10 24 C7.12890625 25.265625 7.12890625 25.265625 3.5625 26.25 C2.38816406 26.58515625 1.21382812 26.9203125 0.00390625 27.265625 C-3 28 -3 28 -5 28 C-4.625 26.0625 -4.625 26.0625 -4 24 C-3.34 23.67 -2.68 23.34 -2 23 C-2 22.01 -2 21.02 -2 20 C-3.32 19.67 -4.64 19.34 -6 19 C-6.99 22.3 -7.98 25.6 -9 29 C-9.99 29 -10.98 29 -12 29 C-10.7216952 22.07061005 -8.54959783 16.30285847 -5.4375 10 C-4.8197168 8.71416016 -4.8197168 8.71416016 -4.18945312 7.40234375 C-1.17397513 1.17397513 -1.17397513 1.17397513 0 0 Z " fill="#F2F2F2" transform="translate(31,68)"/>
<path d="M0 0 C1.32 1.32 2.64 2.64 4 4 C3.67 4.763125 3.34 5.52625 3 6.3125 C1.82563314 8.99069135 1.82563314 8.99069135 2 12 C5.41656024 12.16677282 5.41656024 12.16677282 9 12 C11.35953094 9.64046906 11.49141413 8.22104383 12 5 C12.99 5 13.98 5 15 5 C15 6.65 15 8.3 15 10 C17.31 10 19.62 10 22 10 C22 10.66 22 11.32 22 12 C19.69 12 17.38 12 15 12 C15 14.64 15 17.28 15 20 C14.34 20 13.68 20 13 20 C12.67 18.02 12.34 16.04 12 14 C11.01 14.66 10.02 15.32 9 16 C7.88625 16.103125 6.7725 16.20625 5.625 16.3125 C1.26500357 17.13939587 -0.18310018 18.67093658 -3 22 C-8.65382951 17.78970143 -8.65382951 17.78970143 -10 14.71875 C-10 10.65934869 -7.6687523 8.53603339 -5.0625 5.6875 C-4.58103516 5.13771484 -4.09957031 4.58792969 -3.60351562 4.02148438 C-2.41575918 2.66908843 -1.2095981 1.33289632 0 0 Z M1 4 C1 4.99 1 5.98 1 7 C1.66 6.01 2.32 5.02 3 4 C2.34 4 1.68 4 1 4 Z " fill="#F0F0F0" transform="translate(47,51)"/>
<path d="M0 0 C2.60197562 2.39655649 3.91255961 3.86327492 4.1875 7.4375 C2.36604635 11.36800525 -0.36483913 13.70373006 -4 16 C-7.6875 17.1875 -7.6875 17.1875 -11 17 C-13.71228438 14.63544439 -14.84829418 13.10553436 -15.33984375 9.5234375 C-15 7 -15 7 -13.3203125 5.234375 C-12.59585938 4.74453125 -11.87140625 4.2546875 -11.125 3.75 C-10.04605469 2.99976563 -10.04605469 2.99976563 -8.9453125 2.234375 C-5.75354252 0.20907517 -3.81262483 -0.54466069 0 0 Z " fill="#EFEEEE" transform="translate(45,174)"/>
<path d="M0 0 C11.52164009 0.96355353 11.52164009 0.96355353 17 2 C17 2.99 17 3.98 17 5 C12.71 4.67 8.42 4.34 4 4 C7.96 5.98 11.92 7.96 16 10 C16 10.99 16 11.98 16 13 C10.555 13.495 10.555 13.495 5 14 C7.97 14.99 10.94 15.98 14 17 C14 17.99 14 18.98 14 20 C7.99522721 19.35083537 2.599219 17.14204997 -3 15 C-3 13.35 -3 11.7 -3 10 C2.445 9.505 2.445 9.505 8 9 C5.36 7.68 2.72 6.36 0 5 C0 3.35 0 1.7 0 0 Z " fill="#F5F5F5" transform="translate(217,140)"/>
<path d="M0 0 C1.43655854 -0.08131463 2.8744483 -0.13933559 4.3125 -0.1875 C5.51326172 -0.23970703 5.51326172 -0.23970703 6.73828125 -0.29296875 C9 0 9 0 10.81640625 1.3203125 C12 3 12 3 11.625 6.0625 C11.41875 7.031875 11.2125 8.00125 11 9 C11.33 9.66 11.66 10.32 12 11 C12.04022391 13.3329866 12.04320247 15.66706666 12 18 C10.68 18 9.36 18 8 18 C7.67 15.69 7.34 13.38 7 11 C5.68 11 4.36 11 3 11 C2.67 13.31 2.34 15.62 2 18 C1.01 18 0.02 18 -1 18 C-1.02717692 15.93757383 -1.0464758 13.87504297 -1.0625 11.8125 C-1.07410156 10.66394531 -1.08570312 9.51539063 -1.09765625 8.33203125 C-1.01192832 5.40699414 -0.67849023 2.83683709 0 0 Z " fill="#F0F0F0" transform="translate(117,218)"/>
<path d="M0 0 C1 1 1 1 1.0625 4.0625 C1.041875 5.031875 1.02125 6.00125 1 7 C-2.96 8.98 -2.96 8.98 -7 11 C-5.02 13.97 -5.02 13.97 -3 17 C-7.7952637 17 -8.67554084 16.01007087 -12.25 13 C-13.14203125 12.2575 -14.0340625 11.515 -14.953125 10.75 C-15.96632813 9.88375 -15.96632813 9.88375 -17 9 C-16.01 8.01 -15.02 7.02 -14 6 C-12.68 6.66 -11.36 7.32 -10 8 C-9.67 6.02 -9.34 4.04 -9 2 C-12.96 2.66 -16.92 3.32 -21 4 C-21.33 3.34 -21.66 2.68 -22 2 C-14.4529869 -0.9553569 -7.99560701 -1.42261212 0 0 Z " fill="#E1E0E1" transform="translate(115,19)"/>
<path d="M0 0 C0.99 0.66 1.98 1.32 3 2 C1.68938409 6.23429756 0.05643741 10.07407404 -2 14 C0.64 11.36 3.28 8.72 6 6 C6.66 6.33 7.32 6.66 8 7 C6.42219077 10.71045247 4.09296752 13.29906384 1.375 16.25 C0.55773438 17.14203125 -0.25953125 18.0340625 -1.1015625 18.953125 C-1.72804688 19.62859375 -2.35453125 20.3040625 -3 21 C-3.99 20.34 -4.98 19.68 -6 19 C-5.40075776 14.80530429 -4.42500059 10.99000166 -3 7 C-4.98 8.98 -6.96 10.96 -9 13 C-9.99 12.67 -10.98 12.34 -12 12 C-10.47940093 8.11985064 -8.13921469 6.26093438 -4.875 3.75 C-3.96492188 3.04359375 -3.05484375 2.3371875 -2.1171875 1.609375 C-1.41851562 1.07828125 -0.71984375 0.5471875 0 0 Z " fill="#F1F1F1" transform="translate(52,185)"/>
<path d="M0 0 C0.68449219 0.25652344 1.36898437 0.51304687 2.07421875 0.77734375 C0.33797117 7.19619845 -1.7775887 12.91519211 -4.92578125 18.77734375 C-5.91578125 18.44734375 -6.90578125 18.11734375 -7.92578125 17.77734375 C-7.59578125 15.79734375 -7.26578125 13.81734375 -6.92578125 11.77734375 C-8.77303177 11.08574974 -8.77303177 11.08574974 -10.92578125 10.77734375 C-11.91578125 11.43734375 -12.90578125 12.09734375 -13.92578125 12.77734375 C-14.58578125 11.45734375 -15.24578125 10.13734375 -15.92578125 8.77734375 C-13.8754136 7.23731651 -11.81315905 5.72120055 -9.73828125 4.21484375 C-9.16013672 3.77720703 -8.58199219 3.33957031 -7.98632812 2.88867188 C-5.14320749 0.84869266 -3.55728013 -0.27071424 0 0 Z " fill="#EEEDED" transform="translate(66.92578125,198.22265625)"/>
<path d="M0 0 C4.14298667 0.59834725 7.18194377 2.00664285 10.8125 4.0625 C11.78832031 4.61035156 12.76414063 5.15820312 13.76953125 5.72265625 C14.50558594 6.14417969 15.24164063 6.56570312 16 7 C15.67 8.32 15.34 9.64 15 11 C12.36 10.34 9.72 9.68 7 9 C6.34 10.32 5.68 11.64 5 13 C7.475 13.99 7.475 13.99 10 15 C10 16.32 10 17.64 10 19 C6.10993227 17.61219205 3.03441292 15.7847773 -0.3125 13.375 C-1.19550781 12.74335938 -2.07851562 12.11171875 -2.98828125 11.4609375 C-3.65214844 10.97882813 -4.31601563 10.49671875 -5 10 C-4.67 9.01 -4.34 8.02 -4 7 C-1.69 7.66 0.62 8.32 3 9 C3.66 7.68 4.32 6.36 5 5 C2.525 4.01 2.525 4.01 0 3 C0 2.01 0 1.02 0 0 Z " fill="#F0EFF0" transform="translate(206,170)"/>
<path d="M0 0 C5.94 0 11.88 0 18 0 C18 1.32 18 2.64 18 4 C15.03 5.32 12.06 6.64 9 8 C11.97 8 14.94 8 18 8 C18 8.99 18 9.98 18 11 C6.47835991 13.29612756 6.47835991 13.29612756 1 13 C1 11.68 1 10.36 1 9 C3.97 7.35 6.94 5.7 10 4 C6.7 3.67 3.4 3.34 0 3 C0 2.01 0 1.02 0 0 Z " fill="#EAEAEA" transform="translate(13,127)"/>
<path d="M0 0 C5.85272256 0.45020943 10.08220119 3.03839227 15 6 C15.36875341 9.87191078 15.07486527 11.85026947 13.3125 15.375 C11 18 11 18 8.4375 18.5625 C5.59625424 17.9068279 4.59724363 17.43789817 3 15 C2.8125 12.3125 2.8125 12.3125 3 10 C4.32 10 5.64 10 7 10 C7 8.02 7 6.04 7 4 C5.824375 3.7834375 5.824375 3.7834375 4.625 3.5625 C2 3 2 3 0 2 C0 1.34 0 0.68 0 0 Z " fill="#E9E9E9" transform="translate(165,25)"/>
<path d="M0 0 C3.5 0.25 3.5 0.25 5.5 2.25 C5.625 4.875 5.625 4.875 5.5 7.25 C4.51 7.25 3.52 7.25 2.5 7.25 C2.5 5.93 2.5 4.61 2.5 3.25 C0.85 3.25 -0.8 3.25 -2.5 3.25 C0.22190685 7.47104999 0.22190685 7.47104999 3.5 11.25 C3.85877543 14.04844834 3.83812547 15.653308 2.4375 18.125 C-0.67214989 19.93060316 -3.11739473 19.04952488 -6.5 18.25 C-8.5 16.25 -8.5 16.25 -8.625 13.625 C-8.58375 12.84125 -8.5425 12.0575 -8.5 11.25 C-7.51 11.25 -6.52 11.25 -5.5 11.25 C-5.17 12.57 -4.84 13.89 -4.5 15.25 C-3.18 15.58 -1.86 15.91 -0.5 16.25 C-2.37702327 11.35437307 -2.37702327 11.35437307 -5.5 7.25 C-5.75 4.75 -5.75 4.75 -5.5 2.25 C-3.5 0.25 -3.5 0.25 0 0 Z " fill="#EEEEEE" transform="translate(94.5,212.75)"/>
<path d="M0 0 C0.928125 0.20625 1.85625 0.4125 2.8125 0.625 C2.4825 1.285 2.1525 1.945 1.8125 2.625 C-0.75 3.25 -0.75 3.25 -3.1875 3.625 C-3.1875 4.285 -3.1875 4.945 -3.1875 5.625 C-2.34445313 5.67398438 -1.50140625 5.72296875 -0.6328125 5.7734375 C1.01074219 5.88558594 1.01074219 5.88558594 2.6875 6 C3.77804688 6.06960937 4.86859375 6.13921875 5.9921875 6.2109375 C8.8125 6.625 8.8125 6.625 10.8125 8.625 C10.75 11.5625 10.75 11.5625 9.8125 14.625 C7.5 16.5625 7.5 16.5625 4.8125 17.625 C2.43027077 17.35274523 0.95003399 16.69376699 -1.1875 15.625 C-1.1875 14.965 -1.1875 14.305 -1.1875 13.625 C2.10226808 12.52841064 3.52553767 12.82546862 6.8125 13.625 C6.8125 12.305 6.8125 10.985 6.8125 9.625 C5.96945313 9.65980469 5.12640625 9.69460937 4.2578125 9.73046875 C3.16210938 9.75753906 2.06640625 9.78460938 0.9375 9.8125 C-0.15304688 9.84730469 -1.24359375 9.88210937 -2.3671875 9.91796875 C-3.29789063 9.82128906 -4.22859375 9.72460938 -5.1875 9.625 C-7.1875 6.625 -7.1875 6.625 -7 4.0625 C-5.68695131 0.12335392 -3.99778605 -0.47032777 0 0 Z " fill="#F3F3F3" transform="translate(189.1875,194.375)"/>
<path d="M0 0 C1.1446875 0.3403125 1.1446875 0.3403125 2.3125 0.6875 C1.9825 1.6775 1.6525 2.6675 1.3125 3.6875 C-0.3375 3.6875 -1.9875 3.6875 -3.6875 3.6875 C-1.59200489 7.6579118 0.580153 10.16816577 4.3125 12.6875 C5.3025 12.6875 6.2925 12.6875 7.3125 12.6875 C6.9825 11.0375 6.6525 9.3875 6.3125 7.6875 C7.6325 7.6875 8.9525 7.6875 10.3125 7.6875 C11.125 9.875 11.125 9.875 11.3125 12.6875 C9.1875 15.5625 9.1875 15.5625 6.3125 17.6875 C3.02950814 17.54893216 1.57648932 16.90703751 -0.9609375 14.796875 C-1.65445313 14.01828125 -2.34796875 13.2396875 -3.0625 12.4375 C-3.77148438 11.66921875 -4.48046875 10.9009375 -5.2109375 10.109375 C-6.6875 7.6875 -6.6875 7.6875 -6.4921875 5.0078125 C-5.17860446 1.22010218 -4.19609196 -0.48791767 0 0 Z " fill="#EDECED" transform="translate(199.6875,183.3125)"/>
<path d="M0 0 C0.99 0 1.98 0 3 0 C2.34 2.31 1.68 4.62 1 7 C2.65 7.33 4.3 7.66 6 8 C6.33 6.35 6.66 4.7 7 3 C7.99 3 8.98 3 10 3 C9.34 5.31 8.68 7.62 8 10 C10.97 10.495 10.97 10.495 14 11 C14.33 9.35 14.66 7.7 15 6 C15.99 6 16.98 6 18 6 C16.68 9.3 15.36 12.6 14 16 C8.31497465 14.35433477 3.23318364 11.70967216 -2 9 C-1.51421457 5.87709365 -1.0013988 3.00419641 0 0 Z " fill="#EDEDED" transform="translate(211,158)"/>
<path d="M0 0 C0.928125 0.20625 1.85625 0.4125 2.8125 0.625 C3.1425 1.945 3.4725 3.265 3.8125 4.625 C1.8325 3.965 -0.1475 3.305 -2.1875 2.625 C-2.5670306 9.41987645 -2.5670306 9.41987645 -0.1875 15.625 C2.36025306 16.51886164 2.36025306 16.51886164 4.8125 16.625 C5.1425 14.645 5.4725 12.665 5.8125 10.625 C6.4725 10.625 7.1325 10.625 7.8125 10.625 C8.16914336 15.97465035 8.16914336 15.97465035 6.75 18.5625 C3.52249887 20.33241998 1.24921714 19.60691918 -2.1875 18.625 C-6.3810089 13.45300569 -6.60127811 8.03856066 -6.1875 1.625 C-3.1875 -0.375 -3.1875 -0.375 0 0 Z " fill="#ECEBEB" transform="translate(160.1875,211.375)"/>
<path d="M0 0 C0.99 0 1.98 0 3 0 C3.09706112 6.11485027 2.77040851 11.93303301 2 18 C0.35 18 -1.3 18 -3 18 C-4.00419637 15.5433053 -5.00350501 13.08481647 -6 10.625 C-6.28617188 9.92632812 -6.57234375 9.22765625 -6.8671875 8.5078125 C-9 3.2265625 -9 3.2265625 -9 1 C-7.140625 1.15234375 -7.140625 1.15234375 -5 2 C-3.21060624 5.54012777 -2.21971038 9.21018561 -1 13 C-0.67 8.71 -0.34 4.42 0 0 Z " fill="#F0F0F0" transform="translate(140,217)"/>
<path d="M0 0 C1.79093191 -0.08086147 3.58289628 -0.13912702 5.375 -0.1875 C6.87160156 -0.23970703 6.87160156 -0.23970703 8.3984375 -0.29296875 C9.25695313 -0.19628906 10.11546875 -0.09960938 11 0 C11.66 0.99 12.32 1.98 13 3 C11.02 3 9.04 3 7 3 C7.99 4.485 7.99 4.485 9 6 C11.31 5.34 13.62 4.68 16 4 C16 4.99 16 5.98 16 7 C13.375 8.82421875 13.375 8.82421875 10 10.6875 C8.88625 11.31011719 7.7725 11.93273437 6.625 12.57421875 C5.75875 13.04472656 4.8925 13.51523438 4 14 C3.34 12.68 2.68 11.36 2 10 C2.99 9.67 3.98 9.34 5 9 C5 7.02 5 5.04 5 3 C3.35 3 1.7 3 0 3 C0 2.01 0 1.02 0 0 Z " fill="#EBEAEA" transform="translate(15,144)"/>
<path d="M0 0 C1.32 0 2.64 0 4 0 C3.690625 0.845625 3.38125 1.69125 3.0625 2.5625 C1.98461179 6.0497854 1.43418696 9.38177535 1 13 C2.95894361 12.88693303 2.95894361 12.88693303 5 12 C6.29660434 9.50965614 6.29660434 9.50965614 7 7 C10.73639216 8.24546405 11.18756513 9.63404953 13 13 C12.21625 13.28875 11.4325 13.5775 10.625 13.875 C7.90328368 14.84912254 7.90328368 14.84912254 6 17 C3 16.8125 3 16.8125 0 16 C-2.48709896 12.26935156 -2.29991053 10.42368032 -2 6 C-1 2.5625 -1 2.5625 0 0 Z " fill="#EBEBEB" transform="translate(193,50)"/>
<path d="M0 0 C-1 3 -1 3 -3 4 C-3 5.32 -3 6.64 -3 8 C-1.02 7.34 0.96 6.68 3 6 C2.34 7.32 1.68 8.64 1 10 C0.34 10 -0.32 10 -1 10 C-0.34 11.98 0.32 13.96 1 16 C1.78375 15.505 2.5675 15.01 3.375 14.5 C6 13 6 13 8 13 C6.549046 16.82524236 4.61818068 18.19090966 1 20 C0.34 20 -0.32 20 -1 20 C-2.17133058 17.54379149 -3.33721722 15.08525083 -4.5 12.625 C-4.83386719 11.92632812 -5.16773438 11.22765625 -5.51171875 10.5078125 C-8 5.2265625 -8 5.2265625 -8 3 C-5.09451118 0.95830515 -3.59857954 0 0 0 Z " fill="#F1F1F1" transform="translate(174,205)"/>
<path d="M0 0 C2.97 0.33 5.94 0.66 9 1 C9 1.66 9 2.32 9 3 C7.02 3 5.04 3 3 3 C3 4.98 3 6.96 3 9 C4.65 9 6.3 9 8 9 C8 9.66 8 10.32 8 11 C5.69 10.67 3.38 10.34 1 10 C1 11.98 1 13.96 1 16 C2.98 16.33 4.96 16.66 7 17 C7 17.66 7 18.32 7 19 C4.03 18.67 1.06 18.34 -2 18 C-3.23940347 13.64156793 -2.66253286 10.54363011 -1.5625 6.1875 C-1.27503906 5.02605469 -0.98757812 3.86460937 -0.69140625 2.66796875 C-0.46324219 1.78753906 -0.23507813 0.90710938 0 0 Z " fill="#F3F2F3" transform="translate(104,216)"/>
<path d="M0 0 C0.99 0.33 1.98 0.66 3 1 C3.33 2.98 3.66 4.96 4 7 C3.34773438 7.04898438 2.69546875 7.09796875 2.0234375 7.1484375 C-2.97694529 7.57619886 -7.24310819 8.34061913 -12 10 C-14.875 10.125 -14.875 10.125 -17 10 C-16.86328125 8.140625 -16.86328125 8.140625 -16 6 C-13.41796875 4.734375 -13.41796875 4.734375 -10.1875 3.75 C-9.12917969 3.41484375 -8.07085937 3.0796875 -6.98046875 2.734375 C-4 2 -4 2 0 2 C0 1.34 0 0.68 0 0 Z " fill="#F6F6F6" transform="translate(227,90)"/>
<path d="M0 0 C4.23322844 0.62045463 7.52290295 2.10523559 11.3125 4.0625 C12.38113281 4.61035156 13.44976562 5.15820312 14.55078125 5.72265625 C15.35902344 6.14417969 16.16726562 6.56570312 17 7 C13.78130827 10.70606462 10.69204851 11.00005523 6 12 C5.5875 11.05125 5.175 10.1025 4.75 9.125 C2.9959869 5.99283376 2.29148243 5.13499394 -1 4 C-0.67 2.68 -0.34 1.36 0 0 Z " fill="#3D355E" transform="translate(28,78)"/>
<path d="M0 0 C0.66 0 1.32 0 2 0 C2 2.31 2 4.62 2 7 C3.65 7 5.3 7 7 7 C7.33 4.69 7.66 2.38 8 0 C8.66 0.33 9.32 0.66 10 1 C10 3.31 10 5.62 10 8 C11.98 8 13.96 8 16 8 C16 5.36 16 2.72 16 0 C16.66 0 17.32 0 18 0 C18 3.3 18 6.6 18 10 C11.86403867 10.08522169 6.06815666 9.89898617 0 9 C0 6.03 0 3.06 0 0 Z " fill="#F0F0F0" transform="translate(218,127)"/>
<path d="M0 0 C0.66 0 1.32 0 2 0 C5.07692308 6.4 5.07692308 6.4 4.6875 9.4375 C4.460625 9.953125 4.23375 10.46875 4 11 C3.34 10.34 2.68 9.68 2 9 C-1.54429856 9.4286971 -4.90525089 10.51761027 -8.3125 11.5625 C-9.19550781 11.83191406 -10.07851563 12.10132813 -10.98828125 12.37890625 C-11.65214844 12.58386719 -12.31601562 12.78882813 -13 13 C-13.33 11.68 -13.66 10.36 -14 9 C-12.23141309 8.32739649 -10.46003984 7.66211605 -8.6875 7 C-7.70136719 6.62875 -6.71523438 6.2575 -5.69921875 5.875 C-3 5 -3 5 0 5 C0 3.35 0 1.7 0 0 Z " fill="#EDECED" transform="translate(34,154)"/>
<path d="M0 0 C0.99 0.33 1.98 0.66 3 1 C2.3503125 2.13888672 2.3503125 2.13888672 1.6875 3.30078125 C1.130625 4.29464844 0.57375 5.28851563 0 6.3125 C-0.556875 7.29863281 -1.11375 8.28476563 -1.6875 9.30078125 C-3.21864753 11.94942471 -3.21864753 11.94942471 -3 15 C-0.55503957 16.71711243 -0.55503957 16.71711243 2 18 C1.67 18.99 1.34 19.98 1 21 C-0.48280196 20.21516341 -1.9611498 19.42190666 -3.4375 18.625 C-4.26121094 18.18414062 -5.08492188 17.74328125 -5.93359375 17.2890625 C-8 16 -8 16 -9 14 C-7.77731838 11.72888366 -6.51726078 9.60039342 -5.125 7.4375 C-4.74730469 6.83486328 -4.36960937 6.23222656 -3.98046875 5.61132812 C-1.19462386 1.19462386 -1.19462386 1.19462386 0 0 Z " fill="#ECECEC" transform="translate(74,204)"/>
<path d="M0 0 C0.680625 0.268125 1.36125 0.53625 2.0625 0.8125 C1.68919176 3.53824271 1.27055399 4.62072085 -0.78515625 6.515625 C-1.51605469 7.02609375 -2.24695313 7.5365625 -3 8.0625 C-3.73347656 8.58328125 -4.46695313 9.1040625 -5.22265625 9.640625 C-5.78855469 10.02734375 -6.35445312 10.4140625 -6.9375 10.8125 C-8.2575 10.1525 -9.5775 9.4925 -10.9375 8.8125 C-10.54473218 6.39904511 -10.19526515 5.08204474 -8.484375 3.29296875 C-3.58962257 -0.22912485 -3.58962257 -0.22912485 0 0 Z " fill="#433D69" transform="translate(43.9375,177.1875)"/>
<path d="M0 0 C1.65 0 3.3 0 5 0 C5 1.32 5 2.64 5 4 C5.99 4 6.98 4 8 4 C8.33 3.01 8.66 2.02 9 1 C9 1.99 9 2.98 9 4 C9.66 4 10.32 4 11 4 C10.03644647 13.41002278 10.03644647 13.41002278 9 18 C8.71125 17.360625 8.4225 16.72125 8.125 16.0625 C7.17176549 13.84793921 7.17176549 13.84793921 5 13 C5.103125 12.29875 5.20625 11.5975 5.3125 10.875 C4.85991027 6.71117452 2.75904615 5.10392692 0 2 C0 1.34 0 0.68 0 0 Z " fill="#362F58" transform="translate(92,216)"/>
<path d="M0 0 C5.94 0 11.88 0 18 0 C18 1.32 18 2.64 18 4 C14.49223216 5.60355101 11.85645121 6.22036864 8 6 C8.66 5.34 9.32 4.68 10 4 C6.7 3.67 3.4 3.34 0 3 C0 2.01 0 1.02 0 0 Z " fill="#F5F5F5" transform="translate(13,127)"/>
<path d="M0 0 C3.05126119 5.24816924 3.05126119 5.24816924 2.8125 8.75 C2 11 2 11 0 13 C-2.125 12.625 -2.125 12.625 -4 12 C-3.95875 10.906875 -3.9175 9.81375 -3.875 8.6875 C-3.67925334 4.91107771 -3.67925334 4.91107771 -6 2 C-3 0 -3 0 0 0 Z " fill="#453E67" transform="translate(77,31)"/>
<path d="M0 0 C0.99 0.66 1.98 1.32 3 2 C3 2.66 3 3.32 3 4 C2.360625 4.598125 1.72125 5.19625 1.0625 5.8125 C-1.25174456 8.26700181 -1.63391473 9.70523261 -2 13 C-4.64 13.33 -7.28 13.66 -10 14 C-8.62815653 9.93501119 -6.77931541 7.32603439 -3.875 4.1875 C-3.15054688 3.39730469 -2.42609375 2.60710938 -1.6796875 1.79296875 C-1.12539063 1.20128906 -0.57109375 0.60960937 0 0 Z " fill="#4A4468" transform="translate(47,51)"/>
<path d="M0 0 C1.32 0.66 2.64 1.32 4 2 C3.47755558 5.76159981 2.7772785 8.32191002 0 11 C-2.5625 11.375 -2.5625 11.375 -5 11 C-5.66 10.34 -6.32 9.68 -7 9 C-7 8.01 -7 7.02 -7 6 C-6.21625 5.7525 -5.4325 5.505 -4.625 5.25 C-1.67682892 3.84610901 -1.0975223 2.99324263 0 0 Z " fill="#3E385F" transform="translate(176,32)"/>
<path d="M0 0 C0.66 0.33 1.32 0.66 2 1 C2.8515625 3.58203125 2.8515625 3.58203125 3.625 6.8125 C3.88539063 7.87082031 4.14578125 8.92914063 4.4140625 10.01953125 C5 13 5 13 5 17 C4.01 17.33 3.02 17.66 2 18 C0.19003784 12.34244531 -1.35729017 6.9129304 -2 1 C-1.34 0.67 -0.68 0.34 0 0 Z " fill="#ECEBEC" transform="translate(148,215)"/>
<path d="M0 0 C0 3 0 3 -1.6875 5.1875 C-4 7 -4 7 -6.6875 7.3125 C-9 7 -9 7 -10 6 C-10.25 3.5625 -10.25 3.5625 -10 1 C-6.1496895 -1.56687367 -4.41430237 -0.83288724 0 0 Z " fill="#4A436D" transform="translate(52,41)"/>
<path d="M0 0 C0 0.66 0 1.32 0 2 C-2.0978523 3.20005531 -4.2020249 4.38502983 -6.3125 5.5625 C-6.90740234 5.90474609 -7.50230469 6.24699219 -8.11523438 6.59960938 C-9.70282559 7.47766262 -11.34993931 8.24586268 -13 9 C-13.99 8.67 -14.98 8.34 -16 8 C-15 5 -15 5 -12.3828125 3.359375 C-11.30773437 2.82828125 -10.23265625 2.2971875 -9.125 1.75 C-8.05507813 1.20859375 -6.98515625 0.6671875 -5.8828125 0.109375 C-3 -1 -3 -1 0 0 Z " fill="#F3F3F3" transform="translate(41,168)"/>
<path d="M0 0 C3.96 0 7.92 0 12 0 C12 0.33 12 0.66 12 1 C10.02 1.33 8.04 1.66 6 2 C8.97 2.99 11.94 3.98 15 5 C15 5.99 15 6.98 15 8 C9.7415998 7.32584613 4.97361654 5.75734451 0 4 C0 2.68 0 1.36 0 0 Z " fill="#DDDCDC" transform="translate(216,152)"/>
<path d="M0 0 C1.65 0.33 3.3 0.66 5 1 C5 1.99 5 2.98 5 4 C-0.28 4 -5.56 4 -11 4 C-11 4.66 -11 5.32 -11 6 C-11.99 6 -12.98 6 -14 6 C-14 4.35 -14 2.7 -14 1 C-9.1666528 0.91666643 -4.76307437 1.04738513 0 2 C0 1.34 0 0.68 0 0 Z " fill="#FBFBFB" transform="translate(228,149)"/>
<path d="M0 0 C1.33256282 3.64120668 0.65840377 5.66876554 -0.8125 9.1875 C-1.16957031 10.06792969 -1.52664062 10.94835937 -1.89453125 11.85546875 C-3 14 -3 14 -5 15 C-5.66 14.67 -6.32 14.34 -7 14 C-6.34 11.69 -5.68 9.38 -5 7 C-4.34 7 -3.68 7 -3 7 C-2.814375 5.824375 -2.814375 5.824375 -2.625 4.625 C-2 2 -2 2 0 0 Z " fill="#EEEEEE" transform="translate(66,202)"/>
<path d="M0 0 C1.65 0.33 3.3 0.66 5 1 C4.67 2.65 4.34 4.3 4 6 C3.01 6 2.02 6 1 6 C0.34 7.32 -0.32 8.64 -1 10 C-2.32 9.67 -3.64 9.34 -5 9 C-3.46395304 5.85808576 -1.94268841 2.91403262 0 0 Z " fill="#ECEBEB" transform="translate(64,198)"/>
<path d="M0 0 C2.31 0 4.62 0 7 0 C7 1.65 7 3.3 7 5 C6.0925 5.144375 5.185 5.28875 4.25 5.4375 C1.78523044 5.86409473 -0.58847107 6.35074221 -3 7 C-3.33 5.68 -3.66 4.36 -4 3 C-2.35 2.67 -0.7 2.34 1 2 C0.67 1.34 0.34 0.68 0 0 Z " fill="#DDDCDC" transform="translate(26,144)"/>
<path d="M0 0 C2.5 0.375 2.5 0.375 4.375 1.625 C5.5 3.375 5.5 3.375 5.1875 5.5625 C4.8471875 6.4596875 4.8471875 6.4596875 4.5 7.375 C3.84 6.385 3.18 5.395 2.5 4.375 C-1.21888239 4.88212033 -4.23454239 5.49108215 -7.5 7.375 C-5.75751661 3.48792168 -4.44794262 0.66719139 0 0 Z " fill="#F9F9F9" transform="translate(42.5,173.625)"/>
<path d="M0 0 C1.79093191 -0.08086147 3.58289628 -0.13912702 5.375 -0.1875 C6.87160156 -0.23970703 6.87160156 -0.23970703 8.3984375 -0.29296875 C9.25695313 -0.19628906 10.11546875 -0.09960938 11 0 C11.66 0.99 12.32 1.98 13 3 C11.02 3 9.04 3 7 3 C6.67 4.32 6.34 5.64 6 7 C5.67 6.01 5.34 5.02 5 4 C3.35 3.67 1.7 3.34 0 3 C0 2.01 0 1.02 0 0 Z " fill="#FCFCFC" transform="translate(15,144)"/>
<path d="M0 0 C0.66 0.33 1.32 0.66 2 1 C1.09373216 2.2989839 0.17450463 3.58893167 -0.75 4.875 C-1.51570313 5.95394531 -1.51570313 5.95394531 -2.296875 7.0546875 C-4.07503547 9.08570565 -5.52701607 9.97855012 -8 11 C-8 7 -8 7 -6.25 5.078125 C-5.5075 4.47484375 -4.765 3.8715625 -4 3.25 C-3.2575 2.63640625 -2.515 2.0228125 -1.75 1.390625 C-1.1725 0.93171875 -0.595 0.4728125 0 0 Z " fill="#F4F4F4" transform="translate(49,187)"/>
<path d="M0 0 C2.475 0.99 2.475 0.99 5 2 C4.60196439 4.88575819 4.20990931 5.82189513 1.9375 7.75 C1.298125 8.1625 0.65875 8.575 0 9 C-1.125 6.1875 -1.125 6.1875 -2 3 C-1.34 2.01 -0.68 1.02 0 0 Z " fill="#413A5F" transform="translate(25,86)"/>
<path d="M0 0 C4.875 4.625 4.875 4.625 6 8 C5.01 8.33 4.02 8.66 3 9 C2.34 8.34 1.68 7.68 1 7 C0.01 7 -0.98 7 -2 7 C-1.125 1.125 -1.125 1.125 0 0 Z " fill="#E6E7E7" transform="translate(211,73)"/>
<path d="M0 0 C2.64 0 5.28 0 8 0 C8 1.65 8 3.3 8 5 C6.02 5 4.04 5 2 5 C1.34 3.35 0.68 1.7 0 0 Z " fill="#433B6C" transform="translate(108,20)"/>
<path d="M0 0 C1.65 0.33 3.3 0.66 5 1 C4.67 2.65 4.34 4.3 4 6 C2.35 6 0.7 6 -1 6 C-0.67 4.02 -0.34 2.04 0 0 Z " fill="#524D6A" transform="translate(120,220)"/>
<path d="M0 0 C0.66 0 1.32 0 2 0 C2 3.3 2 6.6 2 10 C-1.3 10 -4.6 10 -8 10 C-8 9.67 -8 9.34 -8 9 C-5.36 8.67 -2.72 8.34 0 8 C0 5.36 0 2.72 0 0 Z " fill="#DFDFDF" transform="translate(234,127)"/>
<path d="M0 0 C2.475 0.99 2.475 0.99 5 2 C4.01 2.33 3.02 2.66 2 3 C3.87949705 6.57104439 5.17053157 8.54744301 9 10 C4.58400927 11.31286211 4.58400927 11.31286211 2.25 10.0625 C0.30088738 6.84646417 0.30560885 3.72842792 0 0 Z " fill="#F6F6F6" transform="translate(166,34)"/>
<path d="M0 0 C5.03985731 0.44469329 7.37634988 2.71343362 11 6 C10.34 6.66 9.68 7.32 9 8 C7.49460339 7.05016642 5.99579653 6.08988109 4.5 5.125 C3.6646875 4.59132813 2.829375 4.05765625 1.96875 3.5078125 C1.3190625 3.01023437 0.669375 2.51265625 0 2 C0 1.34 0 0.68 0 0 Z " fill="#E8E8E8" transform="translate(106,9)"/>
<path d="M0 0 C1.32 0 2.64 0 4 0 C3.01 3.96 2.02 7.92 1 12 C-2 8 -2 8 -1.85546875 5.859375 C-1.23697917 3.90625 -0.61848958 1.953125 0 0 Z " fill="#DEDFDF" transform="translate(193,50)"/>
<path d="M0 0 C1.32 0 2.64 0 4 0 C4.33 3.63 4.66 7.26 5 11 C1.23452331 7.23452331 1.08651531 5.09826415 0 0 Z " fill="#F7F7F7" transform="translate(188,27)"/>
<path d="M0 0 C0.66 1.32 1.32 2.64 2 4 C-0.97 6.475 -0.97 6.475 -4 9 C-4.66 8.34 -5.32 7.68 -6 7 C-4.77065985 3.31197956 -3.06140622 2.27643027 0 0 Z " fill="#3C3559" transform="translate(47,184)"/>
<path d="M0 0 C0.66 0 1.32 0 2 0 C2.36190476 5.42857143 2.36190476 5.42857143 0.8125 7.875 C-1.56036279 9.34781139 -3.25913944 9.22223194 -6 9 C-5.67 8.01 -5.34 7.02 -5 6 C-3.68 6 -2.36 6 -1 6 C-0.67 4.02 -0.34 2.04 0 0 Z " fill="#DBDBDB" transform="translate(166,222)"/>
<path d="M0 0 C0.99 0 1.98 0 3 0 C3.66 2.31 4.32 4.62 5 7 C6.32 7.33 7.64 7.66 9 8 C2.25 7.25 2.25 7.25 0 5 C-0.125 2.375 -0.125 2.375 0 0 Z " fill="#E2E2E2" transform="translate(86,224)"/>
<path d="M0 0 C2.64 0 5.28 0 8 0 C7.67 1.32 7.34 2.64 7 4 C5.35 4 3.7 4 2 4 C1.34 2.68 0.68 1.36 0 0 Z " fill="#514C6B" transform="translate(38,66)"/>
<path d="M0 0 C3.3 0.33 6.6 0.66 10 1 C9.67 1.99 9.34 2.98 9 4 C10.32 4.33 11.64 4.66 13 5 C12.67 5.66 12.34 6.32 12 7 C8.04 5.02 4.08 3.04 0 1 C0 0.67 0 0.34 0 0 Z " fill="#4B465B" transform="translate(219,143)"/>
<path d="M0 0 C1.65 0 3.3 0 5 0 C5.33 1.98 5.66 3.96 6 6 C5.01 6 4.02 6 3 6 C0 2.66666667 0 2.66666667 0 0 Z " fill="#474160" transform="translate(92,216)"/>
<path d="M0 0 C0.33 1.32 0.66 2.64 1 4 C0.46375 3.649375 -0.0725 3.29875 -0.625 2.9375 C-3.73274763 1.71075751 -5.79431703 2.27143569 -9 3 C-8.67 2.01 -8.34 1.02 -8 0 C-5.13822943 -1.43088528 -3.06624227 -0.59991697 0 0 Z " fill="#E3E3E3" transform="translate(163,212)"/>
<path d="M0 0 C-0.33 1.32 -0.66 2.64 -1 4 C-3.16874252 3.49396008 -4.99967627 3.00016187 -7 2 C-7 1.34 -7 0.68 -7 0 C-4.3333581 -1.33332095 -2.83319697 -0.67102033 0 0 Z " fill="#E9E9E9" transform="translate(195,208)"/>
<path d="M0 0 C3.82097239 0.53069061 6.06171403 1.49701566 9 4 C8.67 4.66 8.34 5.32 8 6 C6.02 6 4.04 6 2 6 C2.99 5.34 3.98 4.68 5 4 C4.175 3.525625 3.35 3.05125 2.5 2.5625 C1.675 2.046875 0.85 1.53125 0 1 C0 0.67 0 0.34 0 0 Z " fill="#DFDEDE" transform="translate(220,145)"/>
<path d="M0 0 C-3.68734758 2.45823172 -6.69699971 3.01242616 -11 4 C-11.33 3.34 -11.66 2.68 -12 2 C-7.8794254 0.00214565 -4.54805635 -0.17835515 0 0 Z " fill="#F4F4F4" transform="translate(105,19)"/>
<path d="M0 0 C2.97 0 5.94 0 9 0 C6.37801226 2.15377564 4.35595828 3.40072174 1 4 C0.67 2.68 0.34 1.36 0 0 Z " fill="#3F3B52" transform="translate(22,147)"/>
<path d="M0 0 C0.33 0.66 0.66 1.32 1 2 C3.52733235 2.65555119 3.52733235 2.65555119 6 3 C6 3.66 6 4.32 6 5 C3.125 5.1875 3.125 5.1875 0 5 C-0.66 4.01 -1.32 3.02 -2 2 C-1.34 1.34 -0.68 0.68 0 0 Z " fill="#F9F9F9" transform="translate(71,41)"/>
<path d="M0 0 C1.32 0.33 2.64 0.66 4 1 C3.34 2.98 2.68 4.96 2 7 C0.68 6.34 -0.64 5.68 -2 5 C-1.34 3.35 -0.68 1.7 0 0 Z " fill="#433C5D" transform="translate(64,211)"/>
<path d="M0 0 C-0.33 0.99 -0.66 1.98 -1 3 C-4.5625 4.1875 -4.5625 4.1875 -8 5 C-8 4.34 -8 3.68 -8 3 C-5.09451118 0.95830515 -3.59857954 0 0 0 Z " fill="#E5E4E5" transform="translate(174,205)"/>
<path d="M0 0 C0.33 0.66 0.66 1.32 1 2 C0.0625 4.125 0.0625 4.125 -1 6 C-2.32 5.67 -3.64 5.34 -5 5 C-3.35 3.35 -1.7 1.7 0 0 Z " fill="#4B475B" transform="translate(64,202)"/>
<path d="M0 0 C2.625 -0.1875 2.625 -0.1875 5 0 C5 0.99 5 1.98 5 3 C2.69 3 0.38 3 -2 3 C-1.34 2.01 -0.68 1.02 0 0 Z " fill="#F1F0F0" transform="translate(26,135)"/>
<path d="M0 0 C1.32 0.66 2.64 1.32 4 2 C4 2.99 4 3.98 4 5 C3.01 5.33 2.02 5.66 1 6 C0.34 4.35 -0.32 2.7 -1 1 C-0.67 0.67 -0.34 0.34 0 0 Z " fill="#F5F5F5" transform="translate(207,190)"/>
</svg>
